<svg width="334" height="251" viewBox="0 0 334 251" fill="none" xmlns="http://www.w3.org/2000/svg">
<rect width="334" height="210" rx="12" fill="#105245"/>
<rect x="262" y="174" width="50" height="20" fill="#D9893A"/>
<circle cx="273.5" cy="40.5" r="21.5" fill="#D9893A"/>
<circle cx="299.5" cy="40.5" r="21.5" fill="#F3AD6A"/>
<path fill-rule="evenodd" clip-rule="evenodd" d="M52.5109 101.536C52.5109 99.6421 54.0521 98.101 55.9461 98.101L64 98.1013V107.414L52.5112 107.414L52.5109 101.536ZM64 109.082L52.5117 109.082L52.5118 118H57C60.866 118 64 114.866 64 111V109.082ZM50.8428 118L50.8436 101.536C50.8429 98.7213 53.1318 96.4334 55.9464 96.4341L64 96.4338V94C64 90.134 60.866 87 57 87H35.7032L35.7022 118H50.8428ZM34.0353 118L34.0349 109.081L22 109.082V111C22 114.866 25.134 118 29 118H34.0353ZM22 107.414L34.0354 107.414L34.0354 98.1021L22 98.1023V107.414ZM22 96.4329L34.0351 96.4342L34.0355 87H29C25.134 87 22 90.134 22 94V96.4329Z" fill="#D9893A"/>
<rect x="22" y="174" width="175" height="20" fill="#D9893A"/>
<rect x="22" y="136" width="50" height="20" fill="#D9893A"/>
<rect x="87" y="136" width="50" height="20" fill="#D9893A"/>
<rect x="152" y="136" width="50" height="20" fill="#D9893A"/>
<rect x="217" y="136" width="50" height="20" fill="#D9893A"/>
<rect y="41" width="334" height="210" rx="12" fill="#00715B"/>
<rect x="262" y="215" width="50" height="20" fill="#D9893A"/>
<circle cx="273.5" cy="81.5" r="21.5" fill="#D9893A"/>
<circle cx="299.5" cy="81.5" r="21.5" fill="#F3AD6A"/>
<path fill-rule="evenodd" clip-rule="evenodd" d="M52.5109 142.536C52.5109 140.642 54.0521 139.101 55.9461 139.101L64 139.101V148.414L52.5112 148.414L52.5109 142.536ZM64 150.082L52.5117 150.082L52.5118 159H57C60.866 159 64 155.866 64 152V150.082ZM50.8428 159L50.8436 142.536C50.8429 139.721 53.1318 137.433 55.9464 137.434L64 137.434V135C64 131.134 60.866 128 57 128H35.7032L35.7022 159H50.8428ZM34.0353 159L34.0349 150.081L22 150.082V152C22 155.866 25.134 159 29 159H34.0353ZM22 148.414L34.0354 148.414L34.0354 139.102L22 139.102V148.414ZM22 137.433L34.0351 137.434L34.0355 128H29C25.134 128 22 131.134 22 135V137.433Z" fill="#D9893A"/>
<rect x="22" y="215" width="175" height="20" fill="#D9893A"/>
<rect x="22" y="177" width="50" height="20" fill="#D9893A"/>
<rect x="87" y="177" width="50" height="20" fill="#D9893A"/>
<rect x="152" y="177" width="50" height="20" fill="#D9893A"/>
<rect x="217" y="177" width="50" height="20" fill="#D9893A"/>
</svg>
