<svg width="881" height="305" viewBox="0 0 881 305" fill="none" xmlns="http://www.w3.org/2000/svg">
<g clip-path="url(#clip0_42_97)">
<rect width="881" height="305" fill="#F5F5F5"/>
<path d="M881 267L871 261.226V272.774L881 267ZM872 266L53 266V268L872 268V266Z" fill="#4C4948"/>
<path d="M881 217L53 217" stroke="#D9D9D9" stroke-width="2" stroke-dasharray="16 16"/>
<path d="M881 117L53 117" stroke="#D9D9D9" stroke-width="2" stroke-dasharray="16 16"/>
<path d="M881 17L53 17" stroke="#D9D9D9" stroke-width="2" stroke-dasharray="16 16"/>
<path d="M881 167L53 167" stroke="#D9D9D9" stroke-width="2" stroke-dasharray="16 16"/>
<path d="M881 67L53 67" stroke="#D9D9D9" stroke-width="2" stroke-dasharray="16 16"/>
<path d="M881 106L53 106" stroke="#FF3232"/>
<path d="M54 0L48.2265 10L59.7735 10L54 0ZM53 9L53 267L55 267L55 9L53 9Z" fill="#4C4948"/>
<path d="M91 149C91 140.163 98.1634 133 107 133H139C147.837 133 155 140.163 155 149V267H91V149Z" fill="#00715B"/>
<path d="M116.638 298V284.824L111.19 298H110.374L104.95 284.824V298H102.958V281.992H105.814L110.782 294.04L115.774 281.992H118.63V298H116.638ZM129.54 298V296.68C128.564 297.752 127.284 298.288 125.7 298.288C125.204 298.288 124.716 298.208 124.236 298.048C123.756 297.888 123.324 297.648 122.94 297.328C122.556 296.992 122.244 296.584 122.004 296.104C121.764 295.624 121.644 295.072 121.644 294.448C121.644 293.808 121.764 293.248 122.004 292.768C122.244 292.288 122.556 291.888 122.94 291.568C123.324 291.248 123.756 291.016 124.236 290.872C124.716 290.712 125.204 290.632 125.7 290.632C126.5 290.632 127.22 290.76 127.86 291.016C128.516 291.272 129.076 291.672 129.54 292.216V290.128C129.54 289.344 129.26 288.744 128.7 288.328C128.156 287.896 127.46 287.68 126.612 287.68C125.252 287.68 124.068 288.216 123.06 289.288L122.22 288.04C123.452 286.76 124.996 286.12 126.852 286.12C127.46 286.12 128.036 286.192 128.58 286.336C129.124 286.48 129.596 286.712 129.996 287.032C130.412 287.336 130.74 287.736 130.98 288.232C131.22 288.728 131.34 289.328 131.34 290.032V298H129.54ZM126.348 296.992C126.988 296.992 127.588 296.872 128.148 296.632C128.724 296.392 129.188 296.032 129.54 295.552V293.368C129.188 292.888 128.724 292.528 128.148 292.288C127.588 292.048 126.988 291.928 126.348 291.928C125.5 291.928 124.812 292.168 124.284 292.648C123.756 293.112 123.492 293.72 123.492 294.472C123.492 295.208 123.756 295.816 124.284 296.296C124.812 296.76 125.5 296.992 126.348 296.992ZM134.588 300.904C134.716 300.968 134.876 301.016 135.068 301.048C135.26 301.08 135.428 301.096 135.572 301.096C135.972 301.096 136.308 301.008 136.58 300.832C136.852 300.672 137.092 300.352 137.3 299.872L138.068 298.12L133.22 286.408H135.164L139.028 295.912L142.868 286.408H144.836L139.028 300.352C138.676 301.2 138.212 301.8 137.636 302.152C137.06 302.504 136.388 302.688 135.62 302.704C135.428 302.704 135.204 302.688 134.948 302.656C134.692 302.624 134.476 302.584 134.3 302.536L134.588 300.904Z" fill="#4C4948"/>
<path d="M10.0671 221V219.944C11.0271 219.187 11.8751 218.504 12.6111 217.896C13.3471 217.277 13.9658 216.707 14.4671 216.184C14.9685 215.651 15.3471 215.155 15.6031 214.696C15.8591 214.227 15.9871 213.763 15.9871 213.304C15.9871 212.963 15.9231 212.669 15.7951 212.424C15.6671 212.179 15.4965 211.976 15.2831 211.816C15.0805 211.656 14.8458 211.539 14.5791 211.464C14.3125 211.389 14.0405 211.352 13.7631 211.352C13.1231 211.352 12.5578 211.475 12.0671 211.72C11.5765 211.965 11.1765 212.291 10.8671 212.696L10.0511 211.848C10.4565 211.304 10.9845 210.888 11.6351 210.6C12.2965 210.312 13.0058 210.168 13.7631 210.168C14.2111 210.168 14.6485 210.232 15.0751 210.36C15.5018 210.488 15.8805 210.68 16.2111 210.936C16.5525 211.192 16.8245 211.517 17.0271 211.912C17.2405 212.307 17.3471 212.771 17.3471 213.304C17.3471 213.848 17.2138 214.387 16.9471 214.92C16.6911 215.443 16.3285 215.971 15.8591 216.504C15.4005 217.027 14.8565 217.565 14.2271 218.12C13.5978 218.664 12.9098 219.229 12.1631 219.816H17.3951V221H10.0671ZM23.5054 221.192C22.7694 221.192 22.1454 221.027 21.6334 220.696C21.1214 220.365 20.7 219.939 20.3694 219.416C20.0387 218.883 19.7987 218.291 19.6494 217.64C19.5 216.979 19.4254 216.323 19.4254 215.672C19.4254 215.021 19.5 214.371 19.6494 213.72C19.7987 213.059 20.0387 212.467 20.3694 211.944C20.7 211.421 21.1214 210.995 21.6334 210.664C22.1454 210.333 22.7694 210.168 23.5054 210.168C24.2307 210.168 24.8494 210.333 25.3614 210.664C25.884 210.995 26.3054 211.421 26.6254 211.944C26.956 212.467 27.196 213.059 27.3454 213.72C27.5054 214.371 27.5854 215.021 27.5854 215.672C27.5854 216.323 27.5054 216.979 27.3454 217.64C27.196 218.291 26.956 218.883 26.6254 219.416C26.3054 219.939 25.884 220.365 25.3614 220.696C24.8494 221.027 24.2307 221.192 23.5054 221.192ZM23.5054 220.008C24.0174 220.008 24.444 219.885 24.7854 219.64C25.1374 219.384 25.42 219.053 25.6334 218.648C25.8467 218.232 25.996 217.768 26.0814 217.256C26.1774 216.733 26.2254 216.205 26.2254 215.672C26.2254 215.139 26.1774 214.616 26.0814 214.104C25.996 213.581 25.8467 213.117 25.6334 212.712C25.42 212.307 25.1374 211.981 24.7854 211.736C24.444 211.48 24.0174 211.352 23.5054 211.352C22.9934 211.352 22.5614 211.48 22.2094 211.736C21.868 211.981 21.5907 212.307 21.3774 212.712C21.164 213.117 21.0094 213.581 20.9134 214.104C20.828 214.616 20.7854 215.139 20.7854 215.672C20.7854 216.205 20.828 216.733 20.9134 217.256C21.0094 217.768 21.164 218.232 21.3774 218.648C21.5907 219.053 21.868 219.384 22.2094 219.64C22.5614 219.885 22.9934 220.008 23.5054 220.008ZM33.3023 221.192C32.5663 221.192 31.9423 221.027 31.4303 220.696C30.9183 220.365 30.4969 219.939 30.1663 219.416C29.8356 218.883 29.5956 218.291 29.4463 217.64C29.2969 216.979 29.2223 216.323 29.2223 215.672C29.2223 215.021 29.2969 214.371 29.4463 213.72C29.5956 213.059 29.8356 212.467 30.1663 211.944C30.4969 211.421 30.9183 210.995 31.4303 210.664C31.9423 210.333 32.5663 210.168 33.3023 210.168C34.0276 210.168 34.6463 210.333 35.1583 210.664C35.6809 210.995 36.1023 211.421 36.4223 211.944C36.7529 212.467 36.9929 213.059 37.1423 213.72C37.3023 214.371 37.3823 215.021 37.3823 215.672C37.3823 216.323 37.3023 216.979 37.1423 217.64C36.9929 218.291 36.7529 218.883 36.4223 219.416C36.1023 219.939 35.6809 220.365 35.1583 220.696C34.6463 221.027 34.0276 221.192 33.3023 221.192ZM33.3023 220.008C33.8143 220.008 34.2409 219.885 34.5823 219.64C34.9343 219.384 35.2169 219.053 35.4303 218.648C35.6436 218.232 35.7929 217.768 35.8783 217.256C35.9743 216.733 36.0223 216.205 36.0223 215.672C36.0223 215.139 35.9743 214.616 35.8783 214.104C35.7929 213.581 35.6436 213.117 35.4303 212.712C35.2169 212.307 34.9343 211.981 34.5823 211.736C34.2409 211.48 33.8143 211.352 33.3023 211.352C32.7903 211.352 32.3583 211.48 32.0063 211.736C31.6649 211.981 31.3876 212.307 31.1743 212.712C30.9609 213.117 30.8063 213.581 30.7103 214.104C30.6249 214.616 30.5823 215.139 30.5823 215.672C30.5823 216.205 30.6249 216.733 30.7103 217.256C30.8063 217.768 30.9609 218.232 31.1743 218.648C31.3876 219.053 31.6649 219.384 32.0063 219.64C32.3583 219.885 32.7903 220.008 33.3023 220.008ZM43.0991 221.192C42.3631 221.192 41.7391 221.027 41.2271 220.696C40.7151 220.365 40.2938 219.939 39.9631 219.416C39.6325 218.883 39.3925 218.291 39.2431 217.64C39.0938 216.979 39.0191 216.323 39.0191 215.672C39.0191 215.021 39.0938 214.371 39.2431 213.72C39.3925 213.059 39.6325 212.467 39.9631 211.944C40.2938 211.421 40.7151 210.995 41.2271 210.664C41.7391 210.333 42.3631 210.168 43.0991 210.168C43.8245 210.168 44.4431 210.333 44.9551 210.664C45.4778 210.995 45.8991 211.421 46.2191 211.944C46.5498 212.467 46.7898 213.059 46.9391 213.72C47.0991 214.371 47.1791 215.021 47.1791 215.672C47.1791 216.323 47.0991 216.979 46.9391 217.64C46.7898 218.291 46.5498 218.883 46.2191 219.416C45.8991 219.939 45.4778 220.365 44.9551 220.696C44.4431 221.027 43.8245 221.192 43.0991 221.192ZM43.0991 220.008C43.6111 220.008 44.0378 219.885 44.3791 219.64C44.7311 219.384 45.0138 219.053 45.2271 218.648C45.4405 218.232 45.5898 217.768 45.6751 217.256C45.7711 216.733 45.8191 216.205 45.8191 215.672C45.8191 215.139 45.7711 214.616 45.6751 214.104C45.5898 213.581 45.4405 213.117 45.2271 212.712C45.0138 212.307 44.7311 211.981 44.3791 211.736C44.0378 211.48 43.6111 211.352 43.0991 211.352C42.5871 211.352 42.1551 211.48 41.8031 211.736C41.4618 211.981 41.1845 212.307 40.9711 212.712C40.7578 213.117 40.6031 213.581 40.5071 214.104C40.4218 214.616 40.3791 215.139 40.3791 215.672C40.3791 216.205 40.4218 216.733 40.5071 217.256C40.6031 217.768 40.7578 218.232 40.9711 218.648C41.1845 219.053 41.4618 219.384 41.8031 219.64C42.1551 219.885 42.5871 220.008 43.0991 220.008Z" fill="#4C4948"/>
<path d="M43.0991 271.192C42.3631 271.192 41.7391 271.027 41.2271 270.696C40.7151 270.365 40.2938 269.939 39.9631 269.416C39.6325 268.883 39.3925 268.291 39.2431 267.64C39.0938 266.979 39.0191 266.323 39.0191 265.672C39.0191 265.021 39.0938 264.371 39.2431 263.72C39.3925 263.059 39.6325 262.467 39.9631 261.944C40.2938 261.421 40.7151 260.995 41.2271 260.664C41.7391 260.333 42.3631 260.168 43.0991 260.168C43.8245 260.168 44.4431 260.333 44.9551 260.664C45.4778 260.995 45.8991 261.421 46.2191 261.944C46.5498 262.467 46.7898 263.059 46.9391 263.72C47.0991 264.371 47.1791 265.021 47.1791 265.672C47.1791 266.323 47.0991 266.979 46.9391 267.64C46.7898 268.291 46.5498 268.883 46.2191 269.416C45.8991 269.939 45.4778 270.365 44.9551 270.696C44.4431 271.027 43.8245 271.192 43.0991 271.192ZM43.0991 270.008C43.6111 270.008 44.0378 269.885 44.3791 269.64C44.7311 269.384 45.0138 269.053 45.2271 268.648C45.4405 268.232 45.5898 267.768 45.6751 267.256C45.7711 266.733 45.8191 266.205 45.8191 265.672C45.8191 265.139 45.7711 264.616 45.6751 264.104C45.5898 263.581 45.4405 263.117 45.2271 262.712C45.0138 262.307 44.7311 261.981 44.3791 261.736C44.0378 261.48 43.6111 261.352 43.0991 261.352C42.5871 261.352 42.1551 261.48 41.8031 261.736C41.4618 261.981 41.1845 262.307 40.9711 262.712C40.7578 263.117 40.6031 263.581 40.5071 264.104C40.4218 264.616 40.3791 265.139 40.3791 265.672C40.3791 266.205 40.4218 266.733 40.5071 267.256C40.6031 267.768 40.7578 268.232 40.9711 268.648C41.1845 269.053 41.4618 269.384 41.8031 269.64C42.1551 269.885 42.5871 270.008 43.0991 270.008Z" fill="#4C4948"/>
<path d="M14.0843 121.192C13.3376 121.192 12.7029 121.043 12.1803 120.744C11.6576 120.435 11.2309 120.029 10.9003 119.528C10.5803 119.016 10.3456 118.429 10.1963 117.768C10.0469 117.107 9.97225 116.413 9.97225 115.688C9.97225 114.963 10.0576 114.269 10.2283 113.608C10.3989 112.936 10.6603 112.349 11.0123 111.848C11.3749 111.336 11.8283 110.931 12.3723 110.632C12.9163 110.323 13.5616 110.168 14.3083 110.168C15.0016 110.168 15.5829 110.291 16.0523 110.536C16.5323 110.771 16.9376 111.075 17.2683 111.448L16.5963 112.44C16.3189 112.12 16.0096 111.859 15.6683 111.656C15.3269 111.453 14.8736 111.352 14.3083 111.352C13.7963 111.352 13.3483 111.475 12.9643 111.72C12.5909 111.955 12.2763 112.269 12.0203 112.664C11.7749 113.059 11.5936 113.507 11.4763 114.008C11.3589 114.509 11.3003 115.021 11.3003 115.544C11.3003 115.619 11.3003 115.688 11.3003 115.752C11.3003 115.816 11.3056 115.885 11.3163 115.96C11.4336 115.779 11.5883 115.592 11.7803 115.4C11.9829 115.197 12.2176 115.016 12.4843 114.856C12.7509 114.696 13.0389 114.563 13.3483 114.456C13.6683 114.349 13.9989 114.296 14.3403 114.296C14.8203 114.296 15.2683 114.371 15.6843 114.52C16.1109 114.659 16.4843 114.872 16.8043 115.16C17.1243 115.437 17.3749 115.789 17.5563 116.216C17.7376 116.643 17.8283 117.139 17.8283 117.704C17.8283 118.173 17.7429 118.621 17.5723 119.048C17.4016 119.464 17.1563 119.832 16.8363 120.152C16.5163 120.472 16.1216 120.728 15.6523 120.92C15.1936 121.101 14.6709 121.192 14.0843 121.192ZM14.0363 120.008C14.4523 120.008 14.8096 119.939 15.1083 119.8C15.4176 119.661 15.6736 119.485 15.8763 119.272C16.0789 119.048 16.2283 118.803 16.3243 118.536C16.4309 118.269 16.4843 118.008 16.4843 117.752C16.4843 117.357 16.4203 117.016 16.2923 116.728C16.1643 116.44 15.9883 116.2 15.7643 116.008C15.5403 115.816 15.2789 115.677 14.9803 115.592C14.6816 115.496 14.3616 115.448 14.0203 115.448C13.4869 115.448 12.9803 115.597 12.5003 115.896C12.0309 116.184 11.6469 116.568 11.3483 117.048C11.3803 117.379 11.4496 117.72 11.5563 118.072C11.6736 118.424 11.8336 118.744 12.0363 119.032C12.2496 119.32 12.5163 119.555 12.8363 119.736C13.1669 119.917 13.5669 120.008 14.0363 120.008ZM23.5054 121.192C22.7694 121.192 22.1454 121.027 21.6334 120.696C21.1214 120.365 20.7 119.939 20.3694 119.416C20.0387 118.883 19.7987 118.291 19.6494 117.64C19.5 116.979 19.4254 116.323 19.4254 115.672C19.4254 115.021 19.5 114.371 19.6494 113.72C19.7987 113.059 20.0387 112.467 20.3694 111.944C20.7 111.421 21.1214 110.995 21.6334 110.664C22.1454 110.333 22.7694 110.168 23.5054 110.168C24.2307 110.168 24.8494 110.333 25.3614 110.664C25.884 110.995 26.3054 111.421 26.6254 111.944C26.956 112.467 27.196 113.059 27.3454 113.72C27.5054 114.371 27.5854 115.021 27.5854 115.672C27.5854 116.323 27.5054 116.979 27.3454 117.64C27.196 118.291 26.956 118.883 26.6254 119.416C26.3054 119.939 25.884 120.365 25.3614 120.696C24.8494 121.027 24.2307 121.192 23.5054 121.192ZM23.5054 120.008C24.0174 120.008 24.444 119.885 24.7854 119.64C25.1374 119.384 25.42 119.053 25.6334 118.648C25.8467 118.232 25.996 117.768 26.0814 117.256C26.1774 116.733 26.2254 116.205 26.2254 115.672C26.2254 115.139 26.1774 114.616 26.0814 114.104C25.996 113.581 25.8467 113.117 25.6334 112.712C25.42 112.307 25.1374 111.981 24.7854 111.736C24.444 111.48 24.0174 111.352 23.5054 111.352C22.9934 111.352 22.5614 111.48 22.2094 111.736C21.868 111.981 21.5907 112.307 21.3774 112.712C21.164 113.117 21.0094 113.581 20.9134 114.104C20.828 114.616 20.7854 115.139 20.7854 115.672C20.7854 116.205 20.828 116.733 20.9134 117.256C21.0094 117.768 21.164 118.232 21.3774 118.648C21.5907 119.053 21.868 119.384 22.2094 119.64C22.5614 119.885 22.9934 120.008 23.5054 120.008ZM33.3023 121.192C32.5663 121.192 31.9423 121.027 31.4303 120.696C30.9183 120.365 30.4969 119.939 30.1663 119.416C29.8356 118.883 29.5956 118.291 29.4463 117.64C29.2969 116.979 29.2223 116.323 29.2223 115.672C29.2223 115.021 29.2969 114.371 29.4463 113.72C29.5956 113.059 29.8356 112.467 30.1663 111.944C30.4969 111.421 30.9183 110.995 31.4303 110.664C31.9423 110.333 32.5663 110.168 33.3023 110.168C34.0276 110.168 34.6463 110.333 35.1583 110.664C35.6809 110.995 36.1023 111.421 36.4223 111.944C36.7529 112.467 36.9929 113.059 37.1423 113.72C37.3023 114.371 37.3823 115.021 37.3823 115.672C37.3823 116.323 37.3023 116.979 37.1423 117.64C36.9929 118.291 36.7529 118.883 36.4223 119.416C36.1023 119.939 35.6809 120.365 35.1583 120.696C34.6463 121.027 34.0276 121.192 33.3023 121.192ZM33.3023 120.008C33.8143 120.008 34.2409 119.885 34.5823 119.64C34.9343 119.384 35.2169 119.053 35.4303 118.648C35.6436 118.232 35.7929 117.768 35.8783 117.256C35.9743 116.733 36.0223 116.205 36.0223 115.672C36.0223 115.139 35.9743 114.616 35.8783 114.104C35.7929 113.581 35.6436 113.117 35.4303 112.712C35.2169 112.307 34.9343 111.981 34.5823 111.736C34.2409 111.48 33.8143 111.352 33.3023 111.352C32.7903 111.352 32.3583 111.48 32.0063 111.736C31.6649 111.981 31.3876 112.307 31.1743 112.712C30.9609 113.117 30.8063 113.581 30.7103 114.104C30.6249 114.616 30.5823 115.139 30.5823 115.672C30.5823 116.205 30.6249 116.733 30.7103 117.256C30.8063 117.768 30.9609 118.232 31.1743 118.648C31.3876 119.053 31.6649 119.384 32.0063 119.64C32.3583 119.885 32.7903 120.008 33.3023 120.008ZM43.0991 121.192C42.3631 121.192 41.7391 121.027 41.2271 120.696C40.7151 120.365 40.2938 119.939 39.9631 119.416C39.6325 118.883 39.3925 118.291 39.2431 117.64C39.0938 116.979 39.0191 116.323 39.0191 115.672C39.0191 115.021 39.0938 114.371 39.2431 113.72C39.3925 113.059 39.6325 112.467 39.9631 111.944C40.2938 111.421 40.7151 110.995 41.2271 110.664C41.7391 110.333 42.3631 110.168 43.0991 110.168C43.8245 110.168 44.4431 110.333 44.9551 110.664C45.4778 110.995 45.8991 111.421 46.2191 111.944C46.5498 112.467 46.7898 113.059 46.9391 113.72C47.0991 114.371 47.1791 115.021 47.1791 115.672C47.1791 116.323 47.0991 116.979 46.9391 117.64C46.7898 118.291 46.5498 118.883 46.2191 119.416C45.8991 119.939 45.4778 120.365 44.9551 120.696C44.4431 121.027 43.8245 121.192 43.0991 121.192ZM43.0991 120.008C43.6111 120.008 44.0378 119.885 44.3791 119.64C44.7311 119.384 45.0138 119.053 45.2271 118.648C45.4405 118.232 45.5898 117.768 45.6751 117.256C45.7711 116.733 45.8191 116.205 45.8191 115.672C45.8191 115.139 45.7711 114.616 45.6751 114.104C45.5898 113.581 45.4405 113.117 45.2271 112.712C45.0138 112.307 44.7311 111.981 44.3791 111.736C44.0378 111.48 43.6111 111.352 43.0991 111.352C42.5871 111.352 42.1551 111.48 41.8031 111.736C41.4618 111.981 41.1845 112.307 40.9711 112.712C40.7578 113.117 40.6031 113.581 40.5071 114.104C40.4218 114.616 40.3791 115.139 40.3791 115.672C40.3791 116.205 40.4218 116.733 40.5071 117.256C40.6031 117.768 40.7578 118.232 40.9711 118.648C41.1845 119.053 41.4618 119.384 41.8031 119.64C42.1551 119.885 42.5871 120.008 43.0991 120.008Z" fill="#4C4948"/>
<path d="M15.2715 171V168.296H10.1995V167.192L14.7755 160.328H16.5995V167.128H18.1035V168.296H16.5995V171H15.2715ZM15.2715 161.56L11.5275 167.128H15.2715V161.56ZM23.5054 171.192C22.7694 171.192 22.1454 171.027 21.6334 170.696C21.1214 170.365 20.7 169.939 20.3694 169.416C20.0387 168.883 19.7987 168.291 19.6494 167.64C19.5 166.979 19.4254 166.323 19.4254 165.672C19.4254 165.021 19.5 164.371 19.6494 163.72C19.7987 163.059 20.0387 162.467 20.3694 161.944C20.7 161.421 21.1214 160.995 21.6334 160.664C22.1454 160.333 22.7694 160.168 23.5054 160.168C24.2307 160.168 24.8494 160.333 25.3614 160.664C25.884 160.995 26.3054 161.421 26.6254 161.944C26.956 162.467 27.196 163.059 27.3454 163.72C27.5054 164.371 27.5854 165.021 27.5854 165.672C27.5854 166.323 27.5054 166.979 27.3454 167.64C27.196 168.291 26.956 168.883 26.6254 169.416C26.3054 169.939 25.884 170.365 25.3614 170.696C24.8494 171.027 24.2307 171.192 23.5054 171.192ZM23.5054 170.008C24.0174 170.008 24.444 169.885 24.7854 169.64C25.1374 169.384 25.42 169.053 25.6334 168.648C25.8467 168.232 25.996 167.768 26.0814 167.256C26.1774 166.733 26.2254 166.205 26.2254 165.672C26.2254 165.139 26.1774 164.616 26.0814 164.104C25.996 163.581 25.8467 163.117 25.6334 162.712C25.42 162.307 25.1374 161.981 24.7854 161.736C24.444 161.48 24.0174 161.352 23.5054 161.352C22.9934 161.352 22.5614 161.48 22.2094 161.736C21.868 161.981 21.5907 162.307 21.3774 162.712C21.164 163.117 21.0094 163.581 20.9134 164.104C20.828 164.616 20.7854 165.139 20.7854 165.672C20.7854 166.205 20.828 166.733 20.9134 167.256C21.0094 167.768 21.164 168.232 21.3774 168.648C21.5907 169.053 21.868 169.384 22.2094 169.64C22.5614 169.885 22.9934 170.008 23.5054 170.008ZM33.3023 171.192C32.5663 171.192 31.9423 171.027 31.4303 170.696C30.9183 170.365 30.4969 169.939 30.1663 169.416C29.8356 168.883 29.5956 168.291 29.4463 167.64C29.2969 166.979 29.2223 166.323 29.2223 165.672C29.2223 165.021 29.2969 164.371 29.4463 163.72C29.5956 163.059 29.8356 162.467 30.1663 161.944C30.4969 161.421 30.9183 160.995 31.4303 160.664C31.9423 160.333 32.5663 160.168 33.3023 160.168C34.0276 160.168 34.6463 160.333 35.1583 160.664C35.6809 160.995 36.1023 161.421 36.4223 161.944C36.7529 162.467 36.9929 163.059 37.1423 163.72C37.3023 164.371 37.3823 165.021 37.3823 165.672C37.3823 166.323 37.3023 166.979 37.1423 167.64C36.9929 168.291 36.7529 168.883 36.4223 169.416C36.1023 169.939 35.6809 170.365 35.1583 170.696C34.6463 171.027 34.0276 171.192 33.3023 171.192ZM33.3023 170.008C33.8143 170.008 34.2409 169.885 34.5823 169.64C34.9343 169.384 35.2169 169.053 35.4303 168.648C35.6436 168.232 35.7929 167.768 35.8783 167.256C35.9743 166.733 36.0223 166.205 36.0223 165.672C36.0223 165.139 35.9743 164.616 35.8783 164.104C35.7929 163.581 35.6436 163.117 35.4303 162.712C35.2169 162.307 34.9343 161.981 34.5823 161.736C34.2409 161.48 33.8143 161.352 33.3023 161.352C32.7903 161.352 32.3583 161.48 32.0063 161.736C31.6649 161.981 31.3876 162.307 31.1743 162.712C30.9609 163.117 30.8063 163.581 30.7103 164.104C30.6249 164.616 30.5823 165.139 30.5823 165.672C30.5823 166.205 30.6249 166.733 30.7103 167.256C30.8063 167.768 30.9609 168.232 31.1743 168.648C31.3876 169.053 31.6649 169.384 32.0063 169.64C32.3583 169.885 32.7903 170.008 33.3023 170.008ZM43.0991 171.192C42.3631 171.192 41.7391 171.027 41.2271 170.696C40.7151 170.365 40.2938 169.939 39.9631 169.416C39.6325 168.883 39.3925 168.291 39.2431 167.64C39.0938 166.979 39.0191 166.323 39.0191 165.672C39.0191 165.021 39.0938 164.371 39.2431 163.72C39.3925 163.059 39.6325 162.467 39.9631 161.944C40.2938 161.421 40.7151 160.995 41.2271 160.664C41.7391 160.333 42.3631 160.168 43.0991 160.168C43.8245 160.168 44.4431 160.333 44.9551 160.664C45.4778 160.995 45.8991 161.421 46.2191 161.944C46.5498 162.467 46.7898 163.059 46.9391 163.72C47.0991 164.371 47.1791 165.021 47.1791 165.672C47.1791 166.323 47.0991 166.979 46.9391 167.64C46.7898 168.291 46.5498 168.883 46.2191 169.416C45.8991 169.939 45.4778 170.365 44.9551 170.696C44.4431 171.027 43.8245 171.192 43.0991 171.192ZM43.0991 170.008C43.6111 170.008 44.0378 169.885 44.3791 169.64C44.7311 169.384 45.0138 169.053 45.2271 168.648C45.4405 168.232 45.5898 167.768 45.6751 167.256C45.7711 166.733 45.8191 166.205 45.8191 165.672C45.8191 165.139 45.7711 164.616 45.6751 164.104C45.5898 163.581 45.4405 163.117 45.2271 162.712C45.0138 162.307 44.7311 161.981 44.3791 161.736C44.0378 161.48 43.6111 161.352 43.0991 161.352C42.5871 161.352 42.1551 161.48 41.8031 161.736C41.4618 161.981 41.1845 162.307 40.9711 162.712C40.7578 163.117 40.6031 163.581 40.5071 164.104C40.4218 164.616 40.3791 165.139 40.3791 165.672C40.3791 166.205 40.4218 166.733 40.5071 167.256C40.6031 167.768 40.7578 168.232 40.9711 168.648C41.1845 169.053 41.4618 169.384 41.8031 169.64C42.1551 169.885 42.5871 170.008 43.0991 170.008Z" fill="#4C4948"/>
<path d="M13.9685 71.192C13.4352 71.192 12.9338 71.128 12.4645 71C12.0058 70.872 11.6058 70.6853 11.2645 70.44C10.9232 70.184 10.6512 69.88 10.4485 69.528C10.2458 69.1653 10.1445 68.7547 10.1445 68.296C10.1445 67.944 10.2138 67.6187 10.3525 67.32C10.4912 67.0213 10.6778 66.7547 10.9125 66.52C11.1472 66.2747 11.4192 66.0667 11.7285 65.896C12.0378 65.7253 12.3578 65.592 12.6885 65.496C12.3792 65.4107 12.0805 65.2933 11.7925 65.144C11.5152 64.9947 11.2645 64.8187 11.0405 64.616C10.8272 64.4027 10.6512 64.1573 10.5125 63.88C10.3845 63.6027 10.3205 63.288 10.3205 62.936C10.3205 62.456 10.4272 62.0453 10.6405 61.704C10.8538 61.352 11.1312 61.064 11.4725 60.84C11.8245 60.6053 12.2138 60.4347 12.6405 60.328C13.0778 60.2213 13.5205 60.168 13.9685 60.168C14.4058 60.168 14.8432 60.2213 15.2805 60.328C15.7178 60.4347 16.1072 60.6053 16.4485 60.84C16.8005 61.064 17.0832 61.352 17.2965 61.704C17.5205 62.0453 17.6325 62.456 17.6325 62.936C17.6325 63.288 17.5632 63.6027 17.4245 63.88C17.2965 64.1573 17.1205 64.4027 16.8965 64.616C16.6832 64.8187 16.4325 64.9947 16.1445 65.144C15.8565 65.2933 15.5578 65.4107 15.2485 65.496C15.5792 65.592 15.8992 65.7253 16.2085 65.896C16.5178 66.0667 16.7898 66.2747 17.0245 66.52C17.2592 66.7547 17.4458 67.0213 17.5845 67.32C17.7232 67.6187 17.7925 67.944 17.7925 68.296C17.7925 68.744 17.6912 69.1493 17.4885 69.512C17.2858 69.8747 17.0085 70.1787 16.6565 70.424C16.3152 70.6693 15.9098 70.8613 15.4405 71C14.9818 71.128 14.4912 71.192 13.9685 71.192ZM13.9685 64.952C14.1285 64.92 14.3418 64.872 14.6085 64.808C14.8752 64.7333 15.1312 64.6267 15.3765 64.488C15.6218 64.3387 15.8352 64.152 16.0165 63.928C16.1978 63.704 16.2885 63.432 16.2885 63.112C16.2885 62.8347 16.2245 62.5893 16.0965 62.376C15.9792 62.152 15.8138 61.9653 15.6005 61.816C15.3978 61.6667 15.1525 61.5547 14.8645 61.48C14.5872 61.3947 14.2885 61.352 13.9685 61.352C13.6485 61.352 13.3445 61.3947 13.0565 61.48C12.7792 61.5547 12.5338 61.6667 12.3205 61.816C12.1178 61.9653 11.9525 62.152 11.8245 62.376C11.7072 62.5893 11.6485 62.8347 11.6485 63.112C11.6485 63.432 11.7392 63.704 11.9205 63.928C12.1018 64.152 12.3152 64.3387 12.5605 64.488C12.8165 64.6267 13.0725 64.7333 13.3285 64.808C13.5952 64.872 13.8085 64.92 13.9685 64.952ZM13.9685 70.008C14.2992 70.008 14.6138 69.9653 14.9125 69.88C15.2112 69.7947 15.4725 69.672 15.6965 69.512C15.9312 69.352 16.1125 69.16 16.2405 68.936C16.3792 68.7013 16.4485 68.44 16.4485 68.152C16.4485 67.8 16.3472 67.5013 16.1445 67.256C15.9525 67 15.7232 66.792 15.4565 66.632C15.1898 66.4613 14.9125 66.3333 14.6245 66.248C14.3472 66.1627 14.1285 66.1093 13.9685 66.088C13.8085 66.1093 13.5845 66.1627 13.2965 66.248C13.0192 66.3333 12.7418 66.4613 12.4645 66.632C12.1978 66.792 11.9632 67 11.7605 67.256C11.5685 67.5013 11.4725 67.8 11.4725 68.152C11.4725 68.44 11.5365 68.7013 11.6645 68.936C11.8032 69.16 11.9845 69.352 12.2085 69.512C12.4432 69.672 12.7098 69.7947 13.0085 69.88C13.3178 69.9653 13.6378 70.008 13.9685 70.008ZM23.5054 71.192C22.7694 71.192 22.1454 71.0267 21.6334 70.696C21.1214 70.3653 20.7 69.9387 20.3694 69.416C20.0387 68.8827 19.7987 68.2907 19.6494 67.64C19.5 66.9787 19.4254 66.3227 19.4254 65.672C19.4254 65.0213 19.5 64.3707 19.6494 63.72C19.7987 63.0587 20.0387 62.4667 20.3694 61.944C20.7 61.4213 21.1214 60.9947 21.6334 60.664C22.1454 60.3333 22.7694 60.168 23.5054 60.168C24.2307 60.168 24.8494 60.3333 25.3614 60.664C25.884 60.9947 26.3054 61.4213 26.6254 61.944C26.956 62.4667 27.196 63.0587 27.3454 63.72C27.5054 64.3707 27.5854 65.0213 27.5854 65.672C27.5854 66.3227 27.5054 66.9787 27.3454 67.64C27.196 68.2907 26.956 68.8827 26.6254 69.416C26.3054 69.9387 25.884 70.3653 25.3614 70.696C24.8494 71.0267 24.2307 71.192 23.5054 71.192ZM23.5054 70.008C24.0174 70.008 24.444 69.8853 24.7854 69.64C25.1374 69.384 25.42 69.0533 25.6334 68.648C25.8467 68.232 25.996 67.768 26.0814 67.256C26.1774 66.7333 26.2254 66.2053 26.2254 65.672C26.2254 65.1387 26.1774 64.616 26.0814 64.104C25.996 63.5813 25.8467 63.1173 25.6334 62.712C25.42 62.3067 25.1374 61.9813 24.7854 61.736C24.444 61.48 24.0174 61.352 23.5054 61.352C22.9934 61.352 22.5614 61.48 22.2094 61.736C21.868 61.9813 21.5907 62.3067 21.3774 62.712C21.164 63.1173 21.0094 63.5813 20.9134 64.104C20.828 64.616 20.7854 65.1387 20.7854 65.672C20.7854 66.2053 20.828 66.7333 20.9134 67.256C21.0094 67.768 21.164 68.232 21.3774 68.648C21.5907 69.0533 21.868 69.384 22.2094 69.64C22.5614 69.8853 22.9934 70.008 23.5054 70.008ZM33.3023 71.192C32.5663 71.192 31.9423 71.0267 31.4303 70.696C30.9183 70.3653 30.4969 69.9387 30.1663 69.416C29.8356 68.8827 29.5956 68.2907 29.4463 67.64C29.2969 66.9787 29.2223 66.3227 29.2223 65.672C29.2223 65.0213 29.2969 64.3707 29.4463 63.72C29.5956 63.0587 29.8356 62.4667 30.1663 61.944C30.4969 61.4213 30.9183 60.9947 31.4303 60.664C31.9423 60.3333 32.5663 60.168 33.3023 60.168C34.0276 60.168 34.6463 60.3333 35.1583 60.664C35.6809 60.9947 36.1023 61.4213 36.4223 61.944C36.7529 62.4667 36.9929 63.0587 37.1423 63.72C37.3023 64.3707 37.3823 65.0213 37.3823 65.672C37.3823 66.3227 37.3023 66.9787 37.1423 67.64C36.9929 68.2907 36.7529 68.8827 36.4223 69.416C36.1023 69.9387 35.6809 70.3653 35.1583 70.696C34.6463 71.0267 34.0276 71.192 33.3023 71.192ZM33.3023 70.008C33.8143 70.008 34.2409 69.8853 34.5823 69.64C34.9343 69.384 35.2169 69.0533 35.4303 68.648C35.6436 68.232 35.7929 67.768 35.8783 67.256C35.9743 66.7333 36.0223 66.2053 36.0223 65.672C36.0223 65.1387 35.9743 64.616 35.8783 64.104C35.7929 63.5813 35.6436 63.1173 35.4303 62.712C35.2169 62.3067 34.9343 61.9813 34.5823 61.736C34.2409 61.48 33.8143 61.352 33.3023 61.352C32.7903 61.352 32.3583 61.48 32.0063 61.736C31.6649 61.9813 31.3876 62.3067 31.1743 62.712C30.9609 63.1173 30.8063 63.5813 30.7103 64.104C30.6249 64.616 30.5823 65.1387 30.5823 65.672C30.5823 66.2053 30.6249 66.7333 30.7103 67.256C30.8063 67.768 30.9609 68.232 31.1743 68.648C31.3876 69.0533 31.6649 69.384 32.0063 69.64C32.3583 69.8853 32.7903 70.008 33.3023 70.008ZM43.0991 71.192C42.3631 71.192 41.7391 71.0267 41.2271 70.696C40.7151 70.3653 40.2938 69.9387 39.9631 69.416C39.6325 68.8827 39.3925 68.2907 39.2431 67.64C39.0938 66.9787 39.0191 66.3227 39.0191 65.672C39.0191 65.0213 39.0938 64.3707 39.2431 63.72C39.3925 63.0587 39.6325 62.4667 39.9631 61.944C40.2938 61.4213 40.7151 60.9947 41.2271 60.664C41.7391 60.3333 42.3631 60.168 43.0991 60.168C43.8245 60.168 44.4431 60.3333 44.9551 60.664C45.4778 60.9947 45.8991 61.4213 46.2191 61.944C46.5498 62.4667 46.7898 63.0587 46.9391 63.72C47.0991 64.3707 47.1791 65.0213 47.1791 65.672C47.1791 66.3227 47.0991 66.9787 46.9391 67.64C46.7898 68.2907 46.5498 68.8827 46.2191 69.416C45.8991 69.9387 45.4778 70.3653 44.9551 70.696C44.4431 71.0267 43.8245 71.192 43.0991 71.192ZM43.0991 70.008C43.6111 70.008 44.0378 69.8853 44.3791 69.64C44.7311 69.384 45.0138 69.0533 45.2271 68.648C45.4405 68.232 45.5898 67.768 45.6751 67.256C45.7711 66.7333 45.8191 66.2053 45.8191 65.672C45.8191 65.1387 45.7711 64.616 45.6751 64.104C45.5898 63.5813 45.4405 63.1173 45.2271 62.712C45.0138 62.3067 44.7311 61.9813 44.3791 61.736C44.0378 61.48 43.6111 61.352 43.0991 61.352C42.5871 61.352 42.1551 61.48 41.8031 61.736C41.4618 61.9813 41.1845 62.3067 40.9711 62.712C40.7578 63.1173 40.6031 63.5813 40.5071 64.104C40.4218 64.616 40.3791 65.1387 40.3791 65.672C40.3791 66.2053 40.4218 66.7333 40.5071 67.256C40.6031 67.768 40.7578 68.232 40.9711 68.648C41.1845 69.0533 41.4618 69.384 41.8031 69.64C42.1551 69.8853 42.5871 70.008 43.0991 70.008Z" fill="#4C4948"/>
<path d="M3.55113 21V12.088L1.83913 13.896L1.03913 13.08L3.71113 10.328H4.87913V21H3.55113ZM11.021 21.192C10.285 21.192 9.661 21.0267 9.149 20.696C8.637 20.3653 8.21567 19.9387 7.885 19.416C7.55433 18.8827 7.31433 18.2907 7.165 17.64C7.01567 16.9787 6.941 16.3227 6.941 15.672C6.941 15.0213 7.01567 14.3707 7.165 13.72C7.31433 13.0587 7.55433 12.4667 7.885 11.944C8.21567 11.4213 8.637 10.9947 9.149 10.664C9.661 10.3333 10.285 10.168 11.021 10.168C11.7463 10.168 12.365 10.3333 12.877 10.664C13.3997 10.9947 13.821 11.4213 14.141 11.944C14.4717 12.4667 14.7117 13.0587 14.861 13.72C15.021 14.3707 15.101 15.0213 15.101 15.672C15.101 16.3227 15.021 16.9787 14.861 17.64C14.7117 18.2907 14.4717 18.8827 14.141 19.416C13.821 19.9387 13.3997 20.3653 12.877 20.696C12.365 21.0267 11.7463 21.192 11.021 21.192ZM11.021 20.008C11.533 20.008 11.9597 19.8853 12.301 19.64C12.653 19.384 12.9357 19.0533 13.149 18.648C13.3623 18.232 13.5117 17.768 13.597 17.256C13.693 16.7333 13.741 16.2053 13.741 15.672C13.741 15.1387 13.693 14.616 13.597 14.104C13.5117 13.5813 13.3623 13.1173 13.149 12.712C12.9357 12.3067 12.653 11.9813 12.301 11.736C11.9597 11.48 11.533 11.352 11.021 11.352C10.509 11.352 10.077 11.48 9.725 11.736C9.38367 11.9813 9.10633 12.3067 8.893 12.712C8.67967 13.1173 8.525 13.5813 8.429 14.104C8.34367 14.616 8.301 15.1387 8.301 15.672C8.301 16.2053 8.34367 16.7333 8.429 17.256C8.525 17.768 8.67967 18.232 8.893 18.648C9.10633 19.0533 9.38367 19.384 9.725 19.64C10.077 19.8853 10.509 20.008 11.021 20.008ZM18.2379 20.616C18.2379 21.1067 18.1099 21.5653 17.8539 21.992C17.6085 22.4187 17.2992 22.7653 16.9259 23.032L16.3339 22.536C16.5899 22.3653 16.8192 22.1413 17.0219 21.864C17.2245 21.5867 17.3419 21.3147 17.3739 21.048C17.3312 21.0693 17.2565 21.08 17.1499 21.08C16.9259 21.08 16.7392 21.0053 16.5899 20.856C16.4512 20.7067 16.3819 20.5093 16.3819 20.264C16.3819 20.0293 16.4619 19.8267 16.6219 19.656C16.7819 19.4853 16.9845 19.4 17.2299 19.4C17.4965 19.4 17.7312 19.5067 17.9339 19.72C18.1365 19.9333 18.2379 20.232 18.2379 20.616ZM23.5054 21.192C22.7694 21.192 22.1454 21.0267 21.6334 20.696C21.1214 20.3653 20.7 19.9387 20.3694 19.416C20.0387 18.8827 19.7987 18.2907 19.6494 17.64C19.5 16.9787 19.4254 16.3227 19.4254 15.672C19.4254 15.0213 19.5 14.3707 19.6494 13.72C19.7987 13.0587 20.0387 12.4667 20.3694 11.944C20.7 11.4213 21.1214 10.9947 21.6334 10.664C22.1454 10.3333 22.7694 10.168 23.5054 10.168C24.2307 10.168 24.8494 10.3333 25.3614 10.664C25.884 10.9947 26.3054 11.4213 26.6254 11.944C26.956 12.4667 27.196 13.0587 27.3454 13.72C27.5054 14.3707 27.5854 15.0213 27.5854 15.672C27.5854 16.3227 27.5054 16.9787 27.3454 17.64C27.196 18.2907 26.956 18.8827 26.6254 19.416C26.3054 19.9387 25.884 20.3653 25.3614 20.696C24.8494 21.0267 24.2307 21.192 23.5054 21.192ZM23.5054 20.008C24.0174 20.008 24.444 19.8853 24.7854 19.64C25.1374 19.384 25.42 19.0533 25.6334 18.648C25.8467 18.232 25.996 17.768 26.0814 17.256C26.1774 16.7333 26.2254 16.2053 26.2254 15.672C26.2254 15.1387 26.1774 14.616 26.0814 14.104C25.996 13.5813 25.8467 13.1173 25.6334 12.712C25.42 12.3067 25.1374 11.9813 24.7854 11.736C24.444 11.48 24.0174 11.352 23.5054 11.352C22.9934 11.352 22.5614 11.48 22.2094 11.736C21.868 11.9813 21.5907 12.3067 21.3774 12.712C21.164 13.1173 21.0094 13.5813 20.9134 14.104C20.828 14.616 20.7854 15.1387 20.7854 15.672C20.7854 16.2053 20.828 16.7333 20.9134 17.256C21.0094 17.768 21.164 18.232 21.3774 18.648C21.5907 19.0533 21.868 19.384 22.2094 19.64C22.5614 19.8853 22.9934 20.008 23.5054 20.008ZM33.3023 21.192C32.5663 21.192 31.9423 21.0267 31.4303 20.696C30.9183 20.3653 30.4969 19.9387 30.1663 19.416C29.8356 18.8827 29.5956 18.2907 29.4463 17.64C29.2969 16.9787 29.2223 16.3227 29.2223 15.672C29.2223 15.0213 29.2969 14.3707 29.4463 13.72C29.5956 13.0587 29.8356 12.4667 30.1663 11.944C30.4969 11.4213 30.9183 10.9947 31.4303 10.664C31.9423 10.3333 32.5663 10.168 33.3023 10.168C34.0276 10.168 34.6463 10.3333 35.1583 10.664C35.6809 10.9947 36.1023 11.4213 36.4223 11.944C36.7529 12.4667 36.9929 13.0587 37.1423 13.72C37.3023 14.3707 37.3823 15.0213 37.3823 15.672C37.3823 16.3227 37.3023 16.9787 37.1423 17.64C36.9929 18.2907 36.7529 18.8827 36.4223 19.416C36.1023 19.9387 35.6809 20.3653 35.1583 20.696C34.6463 21.0267 34.0276 21.192 33.3023 21.192ZM33.3023 20.008C33.8143 20.008 34.2409 19.8853 34.5823 19.64C34.9343 19.384 35.2169 19.0533 35.4303 18.648C35.6436 18.232 35.7929 17.768 35.8783 17.256C35.9743 16.7333 36.0223 16.2053 36.0223 15.672C36.0223 15.1387 35.9743 14.616 35.8783 14.104C35.7929 13.5813 35.6436 13.1173 35.4303 12.712C35.2169 12.3067 34.9343 11.9813 34.5823 11.736C34.2409 11.48 33.8143 11.352 33.3023 11.352C32.7903 11.352 32.3583 11.48 32.0063 11.736C31.6649 11.9813 31.3876 12.3067 31.1743 12.712C30.9609 13.1173 30.8063 13.5813 30.7103 14.104C30.6249 14.616 30.5823 15.1387 30.5823 15.672C30.5823 16.2053 30.6249 16.7333 30.7103 17.256C30.8063 17.768 30.9609 18.232 31.1743 18.648C31.3876 19.0533 31.6649 19.384 32.0063 19.64C32.3583 19.8853 32.7903 20.008 33.3023 20.008ZM43.0991 21.192C42.3631 21.192 41.7391 21.0267 41.2271 20.696C40.7151 20.3653 40.2938 19.9387 39.9631 19.416C39.6325 18.8827 39.3925 18.2907 39.2431 17.64C39.0938 16.9787 39.0191 16.3227 39.0191 15.672C39.0191 15.0213 39.0938 14.3707 39.2431 13.72C39.3925 13.0587 39.6325 12.4667 39.9631 11.944C40.2938 11.4213 40.7151 10.9947 41.2271 10.664C41.7391 10.3333 42.3631 10.168 43.0991 10.168C43.8245 10.168 44.4431 10.3333 44.9551 10.664C45.4778 10.9947 45.8991 11.4213 46.2191 11.944C46.5498 12.4667 46.7898 13.0587 46.9391 13.72C47.0991 14.3707 47.1791 15.0213 47.1791 15.672C47.1791 16.3227 47.0991 16.9787 46.9391 17.64C46.7898 18.2907 46.5498 18.8827 46.2191 19.416C45.8991 19.9387 45.4778 20.3653 44.9551 20.696C44.4431 21.0267 43.8245 21.192 43.0991 21.192ZM43.0991 20.008C43.6111 20.008 44.0378 19.8853 44.3791 19.64C44.7311 19.384 45.0138 19.0533 45.2271 18.648C45.4405 18.232 45.5898 17.768 45.6751 17.256C45.7711 16.7333 45.8191 16.2053 45.8191 15.672C45.8191 15.1387 45.7711 14.616 45.6751 14.104C45.5898 13.5813 45.4405 13.1173 45.2271 12.712C45.0138 12.3067 44.7311 11.9813 44.3791 11.736C44.0378 11.48 43.6111 11.352 43.0991 11.352C42.5871 11.352 42.1551 11.48 41.8031 11.736C41.4618 11.9813 41.1845 12.3067 40.9711 12.712C40.7578 13.1173 40.6031 13.5813 40.5071 14.104C40.4218 14.616 40.3791 15.1387 40.3791 15.672C40.3791 16.2053 40.4218 16.7333 40.5071 17.256C40.6031 17.768 40.7578 18.232 40.9711 18.648C41.1845 19.0533 41.4618 19.384 41.8031 19.64C42.1551 19.8853 42.5871 20.008 43.0991 20.008Z" fill="#4C4948"/>
<path d="M227 132C227 123.163 234.163 116 243 116H275C283.837 116 291 123.163 291 132V267H227V132Z" fill="#D9893A"/>
<path d="M244.526 298.288C243.662 298.288 242.886 298.144 242.198 297.856C241.526 297.568 240.91 297.096 240.35 296.44L241.382 294.928C241.734 295.344 242.15 295.712 242.63 296.032C243.11 296.352 243.702 296.512 244.406 296.512C245.398 296.512 246.182 296.208 246.758 295.6C247.334 294.976 247.622 294.16 247.622 293.152V281.992H249.614V293.176C249.614 294.04 249.478 294.8 249.206 295.456C248.95 296.096 248.59 296.624 248.126 297.04C247.678 297.456 247.142 297.768 246.518 297.976C245.91 298.184 245.246 298.288 244.526 298.288ZM261.101 298V296.368C260.653 296.88 260.069 297.328 259.349 297.712C258.629 298.096 257.837 298.288 256.973 298.288C255.757 298.288 254.837 297.992 254.213 297.4C253.589 296.792 253.277 295.856 253.277 294.592V286.408H255.077V294.04C255.077 294.552 255.133 294.976 255.245 295.312C255.373 295.648 255.549 295.92 255.773 296.128C256.013 296.336 256.293 296.48 256.613 296.56C256.933 296.64 257.285 296.68 257.669 296.68C258.373 296.68 259.037 296.504 259.661 296.152C260.285 295.8 260.765 295.392 261.101 294.928V286.408H262.901V298H261.101ZM274.319 298V290.416C274.319 289.392 274.079 288.688 273.599 288.304C273.135 287.92 272.511 287.728 271.727 287.728C271.375 287.728 271.031 287.776 270.695 287.872C270.359 287.968 270.039 288.104 269.735 288.28C269.431 288.44 269.151 288.632 268.895 288.856C268.655 289.064 268.455 289.288 268.295 289.528V298H266.495V286.408H268.295V288.088C268.503 287.848 268.751 287.616 269.039 287.392C269.327 287.152 269.647 286.936 269.999 286.744C270.367 286.552 270.751 286.4 271.151 286.288C271.567 286.176 271.991 286.12 272.423 286.12C274.887 286.12 276.119 287.368 276.119 289.864V298H274.319Z" fill="#4C4948"/>
<path d="M363 76C363 67.1634 370.163 60 379 60H411C419.837 60 427 67.1634 427 76V267H363V76Z" fill="#D93A3A"/>
<path d="M383.44 298.288C382.576 298.288 381.8 298.144 381.112 297.856C380.44 297.568 379.824 297.096 379.264 296.44L380.296 294.928C380.648 295.344 381.064 295.712 381.544 296.032C382.024 296.352 382.616 296.512 383.32 296.512C384.312 296.512 385.096 296.208 385.672 295.6C386.248 294.976 386.536 294.16 386.536 293.152V281.992H388.528V293.176C388.528 294.04 388.392 294.8 388.12 295.456C387.864 296.096 387.504 296.624 387.04 297.04C386.592 297.456 386.056 297.768 385.432 297.976C384.824 298.184 384.16 298.288 383.44 298.288ZM400.015 298V296.368C399.567 296.88 398.983 297.328 398.263 297.712C397.543 298.096 396.751 298.288 395.887 298.288C394.671 298.288 393.751 297.992 393.127 297.4C392.503 296.792 392.191 295.856 392.191 294.592V286.408H393.991V294.04C393.991 294.552 394.047 294.976 394.159 295.312C394.287 295.648 394.463 295.92 394.687 296.128C394.927 296.336 395.207 296.48 395.527 296.56C395.847 296.64 396.199 296.68 396.583 296.68C397.287 296.68 397.951 296.504 398.575 296.152C399.199 295.8 399.679 295.392 400.015 294.928V286.408H401.815V298H400.015ZM405.409 298V281.992H407.209V298H405.409Z" fill="#4C4948"/>
<path d="M499 45C499 36.1634 506.163 29 515 29H547C555.837 29 563 36.1634 563 45V267H499V45Z" fill="#D93A3A"/>
<path d="M523.538 298L522.122 294.448H514.154L512.738 298H510.458L516.89 281.992H519.362L525.818 298H523.538ZM518.138 284.056L514.73 292.672H521.522L518.138 284.056ZM535.382 298V296.368C534.934 296.88 534.35 297.328 533.63 297.712C532.91 298.096 532.118 298.288 531.254 298.288C530.038 298.288 529.118 297.992 528.494 297.4C527.87 296.792 527.558 295.856 527.558 294.592V286.408H529.358V294.04C529.358 294.552 529.414 294.976 529.526 295.312C529.654 295.648 529.83 295.92 530.054 296.128C530.294 296.336 530.574 296.48 530.894 296.56C531.214 296.64 531.566 296.68 531.95 296.68C532.654 296.68 533.318 296.504 533.942 296.152C534.566 295.8 535.046 295.392 535.382 294.928V286.408H537.182V298H535.382ZM545.433 302.704C544.441 302.704 543.585 302.584 542.865 302.344C542.145 302.104 541.441 301.648 540.753 300.976L541.665 299.632C542.145 300.208 542.681 300.616 543.273 300.856C543.881 301.096 544.601 301.216 545.433 301.216C545.913 301.216 546.377 301.152 546.825 301.024C547.273 300.912 547.665 300.712 548.001 300.424C548.353 300.152 548.633 299.792 548.841 299.344C549.049 298.912 549.153 298.376 549.153 297.736V296.08C548.737 296.672 548.185 297.168 547.497 297.568C546.825 297.952 546.081 298.144 545.265 298.144C544.513 298.144 543.817 298.008 543.177 297.736C542.553 297.464 542.009 297.072 541.545 296.56C541.097 296.032 540.745 295.4 540.489 294.664C540.233 293.928 540.105 293.088 540.105 292.144C540.105 291.216 540.225 290.384 540.465 289.648C540.721 288.896 541.073 288.264 541.521 287.752C541.985 287.224 542.529 286.824 543.153 286.552C543.793 286.264 544.497 286.12 545.265 286.12C546.049 286.12 546.777 286.304 547.449 286.672C548.121 287.024 548.689 287.52 549.153 288.16V286.408H550.953V297.664C550.953 298.624 550.793 299.424 550.473 300.064C550.169 300.72 549.761 301.24 549.249 301.624C548.737 302.008 548.145 302.28 547.473 302.44C546.817 302.616 546.137 302.704 545.433 302.704ZM545.697 296.56C546.049 296.56 546.401 296.512 546.753 296.416C547.105 296.304 547.433 296.16 547.737 295.984C548.041 295.808 548.313 295.608 548.553 295.384C548.793 295.16 548.993 294.92 549.153 294.664V289.6C548.993 289.344 548.793 289.104 548.553 288.88C548.313 288.656 548.041 288.464 547.737 288.304C547.433 288.128 547.105 287.992 546.753 287.896C546.401 287.784 546.049 287.728 545.697 287.728C545.121 287.728 544.601 287.84 544.137 288.064C543.673 288.272 543.281 288.576 542.961 288.976C542.641 289.36 542.393 289.824 542.217 290.368C542.057 290.912 541.977 291.504 541.977 292.144C541.977 292.784 542.057 293.376 542.217 293.92C542.393 294.448 542.641 294.912 542.961 295.312C543.281 295.696 543.673 296 544.137 296.224C544.601 296.448 545.121 296.56 545.697 296.56Z" fill="#4C4948"/>
<path d="M635 143C635 134.163 642.163 127 651 127H683C691.837 127 699 134.163 699 143V267H635V143Z" fill="#D9893A"/>
<path d="M653.396 298.288C651.988 298.288 650.78 298.056 649.772 297.592C648.764 297.112 647.924 296.496 647.252 295.744L648.428 294.232C648.684 294.52 648.988 294.808 649.34 295.096C649.692 295.368 650.076 295.608 650.492 295.816C650.924 296.024 651.388 296.192 651.884 296.32C652.38 296.448 652.908 296.512 653.468 296.512C654.188 296.512 654.788 296.424 655.268 296.248C655.748 296.072 656.132 295.856 656.42 295.6C656.708 295.328 656.916 295.032 657.044 294.712C657.172 294.376 657.236 294.056 657.236 293.752C657.236 293.24 657.1 292.816 656.828 292.48C656.556 292.144 656.196 291.864 655.748 291.64C655.316 291.4 654.812 291.208 654.236 291.064C653.676 290.904 653.092 290.744 652.484 290.584C651.892 290.408 651.308 290.216 650.732 290.008C650.172 289.8 649.668 289.536 649.22 289.216C648.788 288.88 648.436 288.472 648.164 287.992C647.892 287.512 647.756 286.912 647.756 286.192C647.756 285.536 647.892 284.936 648.164 284.392C648.452 283.848 648.836 283.384 649.316 283C649.812 282.6 650.396 282.296 651.068 282.088C651.74 281.864 652.468 281.752 653.252 281.752C654.484 281.752 655.572 281.944 656.516 282.328C657.46 282.712 658.268 283.264 658.94 283.984L657.74 285.448C657.132 284.776 656.428 284.288 655.628 283.984C654.828 283.68 653.988 283.528 653.108 283.528C652.148 283.528 651.356 283.76 650.732 284.224C650.124 284.688 649.82 285.304 649.82 286.072C649.82 286.52 649.956 286.888 650.228 287.176C650.5 287.464 650.852 287.712 651.284 287.92C651.732 288.128 652.236 288.312 652.796 288.472C653.372 288.616 653.956 288.776 654.548 288.952C655.156 289.112 655.74 289.304 656.3 289.528C656.876 289.752 657.38 290.04 657.812 290.392C658.26 290.744 658.62 291.176 658.892 291.688C659.164 292.2 659.3 292.832 659.3 293.584C659.3 294.16 659.196 294.736 658.988 295.312C658.78 295.872 658.436 296.376 657.956 296.824C657.492 297.256 656.884 297.608 656.132 297.88C655.38 298.152 654.468 298.288 653.396 298.288ZM667.434 298.288C666.57 298.288 665.778 298.144 665.058 297.856C664.338 297.552 663.714 297.136 663.186 296.608C662.674 296.064 662.266 295.424 661.962 294.688C661.674 293.936 661.53 293.104 661.53 292.192C661.53 291.36 661.674 290.576 661.962 289.84C662.25 289.088 662.642 288.44 663.138 287.896C663.65 287.352 664.25 286.92 664.938 286.6C665.642 286.28 666.41 286.12 667.242 286.12C668.122 286.12 668.906 286.28 669.594 286.6C670.282 286.92 670.866 287.36 671.346 287.92C671.826 288.48 672.186 289.144 672.426 289.912C672.682 290.664 672.81 291.472 672.81 292.336V292.792H663.426C663.458 293.336 663.578 293.856 663.786 294.352C663.994 294.832 664.274 295.256 664.626 295.624C664.994 295.976 665.426 296.264 665.922 296.488C666.418 296.696 666.978 296.8 667.602 296.8C668.274 296.8 668.922 296.672 669.546 296.416C670.17 296.16 670.714 295.8 671.178 295.336L672.042 296.512C671.466 297.088 670.794 297.528 670.026 297.832C669.258 298.136 668.394 298.288 667.434 298.288ZM671.034 291.472C671.034 291.04 670.954 290.6 670.794 290.152C670.65 289.688 670.418 289.272 670.098 288.904C669.794 288.52 669.402 288.208 668.922 287.968C668.442 287.728 667.874 287.608 667.218 287.608C666.594 287.608 666.05 287.728 665.586 287.968C665.122 288.208 664.73 288.512 664.41 288.88C664.106 289.248 663.866 289.664 663.69 290.128C663.53 290.576 663.442 291.024 663.426 291.472H671.034ZM681.438 298.288C680.638 298.288 679.902 298.112 679.23 297.76C678.558 297.408 677.99 296.904 677.526 296.248V302.416H675.726V286.408H677.526V288.136C677.942 287.544 678.494 287.064 679.182 286.696C679.87 286.312 680.622 286.12 681.438 286.12C682.206 286.12 682.902 286.264 683.526 286.552C684.166 286.824 684.71 287.224 685.158 287.752C685.622 288.264 685.974 288.896 686.214 289.648C686.47 290.4 686.598 291.248 686.598 292.192C686.598 293.136 686.47 293.984 686.214 294.736C685.974 295.488 685.622 296.128 685.158 296.656C684.71 297.184 684.166 297.592 683.526 297.88C682.902 298.152 682.206 298.288 681.438 298.288ZM680.982 296.68C681.558 296.68 682.078 296.568 682.542 296.344C683.006 296.12 683.398 295.808 683.718 295.408C684.038 295.008 684.278 294.536 684.438 293.992C684.614 293.432 684.702 292.832 684.702 292.192C684.702 291.552 684.614 290.96 684.438 290.416C684.278 289.872 684.038 289.4 683.718 289C683.398 288.6 683.006 288.288 682.542 288.064C682.078 287.84 681.558 287.728 680.982 287.728C680.262 287.728 679.582 287.912 678.942 288.28C678.318 288.632 677.846 289.064 677.526 289.576V294.808C677.846 295.32 678.318 295.76 678.942 296.128C679.582 296.496 680.262 296.68 680.982 296.68Z" fill="#4C4948"/>
<path d="M771 191C771 182.163 778.163 175 787 175H819C827.837 175 835 182.163 835 191V267H771V191Z" fill="#00715B"/>
<path d="M793.523 298.288C792.339 298.288 791.259 298.08 790.283 297.664C789.307 297.248 788.467 296.672 787.763 295.936C787.075 295.184 786.539 294.304 786.155 293.296C785.771 292.288 785.579 291.192 785.579 290.008C785.579 288.824 785.771 287.728 786.155 286.72C786.539 285.712 787.075 284.84 787.763 284.104C788.467 283.352 789.307 282.768 790.283 282.352C791.259 281.936 792.339 281.728 793.523 281.728C794.707 281.728 795.787 281.936 796.763 282.352C797.739 282.768 798.571 283.352 799.259 284.104C799.963 284.84 800.507 285.712 800.891 286.72C801.275 287.728 801.467 288.824 801.467 290.008C801.467 291.192 801.275 292.288 800.891 293.296C800.507 294.304 799.963 295.184 799.259 295.936C798.571 296.672 797.739 297.248 796.763 297.664C795.787 298.08 794.707 298.288 793.523 298.288ZM793.523 296.512C794.419 296.512 795.227 296.352 795.947 296.032C796.667 295.696 797.283 295.24 797.795 294.664C798.307 294.072 798.699 293.384 798.971 292.6C799.259 291.8 799.403 290.936 799.403 290.008C799.403 289.08 799.259 288.216 798.971 287.416C798.699 286.616 798.307 285.928 797.795 285.352C797.283 284.776 796.667 284.328 795.947 284.008C795.227 283.672 794.419 283.504 793.523 283.504C792.627 283.504 791.811 283.672 791.075 284.008C790.355 284.328 789.739 284.776 789.227 285.352C788.715 285.928 788.323 286.616 788.051 287.416C787.779 288.216 787.643 289.08 787.643 290.008C787.643 290.936 787.779 291.8 788.051 292.6C788.323 293.384 788.715 294.072 789.227 294.664C789.739 295.24 790.355 295.696 791.075 296.032C791.811 296.352 792.627 296.512 793.523 296.512ZM809.619 298.288C808.755 298.288 807.963 298.136 807.243 297.832C806.539 297.512 805.931 297.08 805.419 296.536C804.923 295.992 804.531 295.352 804.243 294.616C803.971 293.864 803.835 293.056 803.835 292.192C803.835 291.328 803.971 290.528 804.243 289.792C804.531 289.056 804.923 288.416 805.419 287.872C805.931 287.328 806.539 286.904 807.243 286.6C807.963 286.28 808.755 286.12 809.619 286.12C810.675 286.12 811.531 286.312 812.187 286.696C812.859 287.08 813.419 287.56 813.867 288.136L812.667 289.24C812.283 288.712 811.843 288.328 811.347 288.088C810.867 287.848 810.323 287.728 809.715 287.728C809.091 287.728 808.531 287.84 808.035 288.064C807.555 288.288 807.139 288.6 806.787 289C806.435 289.4 806.163 289.872 805.971 290.416C805.795 290.96 805.707 291.552 805.707 292.192C805.707 292.832 805.795 293.432 805.971 293.992C806.163 294.536 806.435 295.008 806.787 295.408C807.139 295.808 807.555 296.12 808.035 296.344C808.531 296.568 809.091 296.68 809.715 296.68C810.931 296.68 811.915 296.176 812.667 295.168L813.867 296.272C813.419 296.848 812.859 297.328 812.187 297.712C811.531 298.096 810.675 298.288 809.619 298.288ZM819.318 298.288C818.454 298.288 817.806 298.056 817.374 297.592C816.958 297.112 816.75 296.44 816.75 295.576V287.992H814.83V286.408H816.75V283.24H818.55V286.408H820.902V287.992H818.55V295.192C818.55 295.624 818.646 295.984 818.838 296.272C819.03 296.544 819.326 296.68 819.726 296.68C819.982 296.68 820.214 296.632 820.422 296.536C820.646 296.44 820.822 296.328 820.95 296.2L821.478 297.544C821.254 297.768 820.966 297.944 820.614 298.072C820.278 298.216 819.846 298.288 819.318 298.288Z" fill="#4C4948"/>
</g>
<defs>
<clipPath id="clip0_42_97">
<rect width="881" height="305" fill="white"/>
</clipPath>
</defs>
</svg>
