<svg width="1013" height="437" viewBox="0 0 1013 437" fill="none" xmlns="http://www.w3.org/2000/svg">
<g filter="url(#filter0_d_34_2165)">
<path d="M947 333L937 327.226V338.774L947 333ZM938 332L119 332V334L938 334V332Z" fill="#4C4948"/>
<path d="M947 283L119 283" stroke="#D9D9D9" stroke-width="2" stroke-dasharray="16 16"/>
<path d="M947 183L119 183" stroke="#D9D9D9" stroke-width="2" stroke-dasharray="16 16"/>
<path d="M947 83L119 83" stroke="#D9D9D9" stroke-width="2" stroke-dasharray="16 16"/>
<path d="M947 233L119 233" stroke="#D9D9D9" stroke-width="2" stroke-dasharray="16 16"/>
<path d="M947 133L119 133" stroke="#D9D9D9" stroke-width="2" stroke-dasharray="16 16"/>
<path d="M947 172L119 172" stroke="#FF3232"/>
<path d="M120 66L114.226 76L125.774 76L120 66ZM119 75L119 333L121 333L121 75L119 75Z" fill="#4C4948"/>
<path d="M157 215C157 206.163 164.163 199 173 199H205C213.837 199 221 206.163 221 215V333H157V215Z" fill="#00715B"/>
<path d="M182.638 364V350.824L177.19 364H176.374L170.95 350.824V364H168.958V347.992H171.814L176.782 360.04L181.774 347.992H184.63V364H182.638ZM195.54 364V362.68C194.564 363.752 193.284 364.288 191.7 364.288C191.204 364.288 190.716 364.208 190.236 364.048C189.756 363.888 189.324 363.648 188.94 363.328C188.556 362.992 188.244 362.584 188.004 362.104C187.764 361.624 187.644 361.072 187.644 360.448C187.644 359.808 187.764 359.248 188.004 358.768C188.244 358.288 188.556 357.888 188.94 357.568C189.324 357.248 189.756 357.016 190.236 356.872C190.716 356.712 191.204 356.632 191.7 356.632C192.5 356.632 193.22 356.76 193.86 357.016C194.516 357.272 195.076 357.672 195.54 358.216V356.128C195.54 355.344 195.26 354.744 194.7 354.328C194.156 353.896 193.46 353.68 192.612 353.68C191.252 353.68 190.068 354.216 189.06 355.288L188.22 354.04C189.452 352.76 190.996 352.12 192.852 352.12C193.46 352.12 194.036 352.192 194.58 352.336C195.124 352.48 195.596 352.712 195.996 353.032C196.412 353.336 196.74 353.736 196.98 354.232C197.22 354.728 197.34 355.328 197.34 356.032V364H195.54ZM192.348 362.992C192.988 362.992 193.588 362.872 194.148 362.632C194.724 362.392 195.188 362.032 195.54 361.552V359.368C195.188 358.888 194.724 358.528 194.148 358.288C193.588 358.048 192.988 357.928 192.348 357.928C191.5 357.928 190.812 358.168 190.284 358.648C189.756 359.112 189.492 359.72 189.492 360.472C189.492 361.208 189.756 361.816 190.284 362.296C190.812 362.76 191.5 362.992 192.348 362.992ZM200.588 366.904C200.716 366.968 200.876 367.016 201.068 367.048C201.26 367.08 201.428 367.096 201.572 367.096C201.972 367.096 202.308 367.008 202.58 366.832C202.852 366.672 203.092 366.352 203.3 365.872L204.068 364.12L199.22 352.408H201.164L205.028 361.912L208.868 352.408H210.836L205.028 366.352C204.676 367.2 204.212 367.8 203.636 368.152C203.06 368.504 202.388 368.688 201.62 368.704C201.428 368.704 201.204 368.688 200.948 368.656C200.692 368.624 200.476 368.584 200.3 368.536L200.588 366.904Z" fill="#4C4948"/>
<path d="M76.0671 287V285.944C77.0271 285.187 77.8751 284.504 78.6111 283.896C79.3471 283.277 79.9658 282.707 80.4671 282.184C80.9685 281.651 81.3471 281.155 81.6031 280.696C81.8591 280.227 81.9871 279.763 81.9871 279.304C81.9871 278.963 81.9231 278.669 81.7951 278.424C81.6671 278.179 81.4965 277.976 81.2831 277.816C81.0805 277.656 80.8458 277.539 80.5791 277.464C80.3125 277.389 80.0405 277.352 79.7631 277.352C79.1231 277.352 78.5578 277.475 78.0671 277.72C77.5765 277.965 77.1765 278.291 76.8671 278.696L76.0511 277.848C76.4565 277.304 76.9845 276.888 77.6351 276.6C78.2965 276.312 79.0058 276.168 79.7631 276.168C80.2111 276.168 80.6485 276.232 81.0751 276.36C81.5018 276.488 81.8805 276.68 82.2111 276.936C82.5525 277.192 82.8245 277.517 83.0271 277.912C83.2405 278.307 83.3471 278.771 83.3471 279.304C83.3471 279.848 83.2138 280.387 82.9471 280.92C82.6911 281.443 82.3285 281.971 81.8591 282.504C81.4005 283.027 80.8565 283.565 80.2271 284.12C79.5978 284.664 78.9098 285.229 78.1631 285.816H83.3951V287H76.0671ZM89.5054 287.192C88.7694 287.192 88.1454 287.027 87.6334 286.696C87.1214 286.365 86.7 285.939 86.3694 285.416C86.0387 284.883 85.7987 284.291 85.6494 283.64C85.5 282.979 85.4254 282.323 85.4254 281.672C85.4254 281.021 85.5 280.371 85.6494 279.72C85.7987 279.059 86.0387 278.467 86.3694 277.944C86.7 277.421 87.1214 276.995 87.6334 276.664C88.1454 276.333 88.7694 276.168 89.5054 276.168C90.2307 276.168 90.8494 276.333 91.3614 276.664C91.884 276.995 92.3054 277.421 92.6254 277.944C92.956 278.467 93.196 279.059 93.3454 279.72C93.5054 280.371 93.5854 281.021 93.5854 281.672C93.5854 282.323 93.5054 282.979 93.3454 283.64C93.196 284.291 92.956 284.883 92.6254 285.416C92.3054 285.939 91.884 286.365 91.3614 286.696C90.8494 287.027 90.2307 287.192 89.5054 287.192ZM89.5054 286.008C90.0174 286.008 90.444 285.885 90.7854 285.64C91.1374 285.384 91.42 285.053 91.6334 284.648C91.8467 284.232 91.996 283.768 92.0814 283.256C92.1774 282.733 92.2254 282.205 92.2254 281.672C92.2254 281.139 92.1774 280.616 92.0814 280.104C91.996 279.581 91.8467 279.117 91.6334 278.712C91.42 278.307 91.1374 277.981 90.7854 277.736C90.444 277.48 90.0174 277.352 89.5054 277.352C88.9934 277.352 88.5614 277.48 88.2094 277.736C87.868 277.981 87.5907 278.307 87.3774 278.712C87.164 279.117 87.0094 279.581 86.9134 280.104C86.828 280.616 86.7854 281.139 86.7854 281.672C86.7854 282.205 86.828 282.733 86.9134 283.256C87.0094 283.768 87.164 284.232 87.3774 284.648C87.5907 285.053 87.868 285.384 88.2094 285.64C88.5614 285.885 88.9934 286.008 89.5054 286.008ZM99.3023 287.192C98.5663 287.192 97.9423 287.027 97.4303 286.696C96.9183 286.365 96.4969 285.939 96.1663 285.416C95.8356 284.883 95.5956 284.291 95.4463 283.64C95.2969 282.979 95.2223 282.323 95.2223 281.672C95.2223 281.021 95.2969 280.371 95.4463 279.72C95.5956 279.059 95.8356 278.467 96.1663 277.944C96.4969 277.421 96.9183 276.995 97.4303 276.664C97.9423 276.333 98.5663 276.168 99.3023 276.168C100.028 276.168 100.646 276.333 101.158 276.664C101.681 276.995 102.102 277.421 102.422 277.944C102.753 278.467 102.993 279.059 103.142 279.72C103.302 280.371 103.382 281.021 103.382 281.672C103.382 282.323 103.302 282.979 103.142 283.64C102.993 284.291 102.753 284.883 102.422 285.416C102.102 285.939 101.681 286.365 101.158 286.696C100.646 287.027 100.028 287.192 99.3023 287.192ZM99.3023 286.008C99.8143 286.008 100.241 285.885 100.582 285.64C100.934 285.384 101.217 285.053 101.43 284.648C101.644 284.232 101.793 283.768 101.878 283.256C101.974 282.733 102.022 282.205 102.022 281.672C102.022 281.139 101.974 280.616 101.878 280.104C101.793 279.581 101.644 279.117 101.43 278.712C101.217 278.307 100.934 277.981 100.582 277.736C100.241 277.48 99.8143 277.352 99.3023 277.352C98.7903 277.352 98.3583 277.48 98.0063 277.736C97.6649 277.981 97.3876 278.307 97.1743 278.712C96.9609 279.117 96.8063 279.581 96.7103 280.104C96.6249 280.616 96.5823 281.139 96.5823 281.672C96.5823 282.205 96.6249 282.733 96.7103 283.256C96.8063 283.768 96.9609 284.232 97.1743 284.648C97.3876 285.053 97.6649 285.384 98.0063 285.64C98.3583 285.885 98.7903 286.008 99.3023 286.008ZM109.099 287.192C108.363 287.192 107.739 287.027 107.227 286.696C106.715 286.365 106.294 285.939 105.963 285.416C105.632 284.883 105.392 284.291 105.243 283.64C105.094 282.979 105.019 282.323 105.019 281.672C105.019 281.021 105.094 280.371 105.243 279.72C105.392 279.059 105.632 278.467 105.963 277.944C106.294 277.421 106.715 276.995 107.227 276.664C107.739 276.333 108.363 276.168 109.099 276.168C109.824 276.168 110.443 276.333 110.955 276.664C111.478 276.995 111.899 277.421 112.219 277.944C112.55 278.467 112.79 279.059 112.939 279.72C113.099 280.371 113.179 281.021 113.179 281.672C113.179 282.323 113.099 282.979 112.939 283.64C112.79 284.291 112.55 284.883 112.219 285.416C111.899 285.939 111.478 286.365 110.955 286.696C110.443 287.027 109.824 287.192 109.099 287.192ZM109.099 286.008C109.611 286.008 110.038 285.885 110.379 285.64C110.731 285.384 111.014 285.053 111.227 284.648C111.44 284.232 111.59 283.768 111.675 283.256C111.771 282.733 111.819 282.205 111.819 281.672C111.819 281.139 111.771 280.616 111.675 280.104C111.59 279.581 111.44 279.117 111.227 278.712C111.014 278.307 110.731 277.981 110.379 277.736C110.038 277.48 109.611 277.352 109.099 277.352C108.587 277.352 108.155 277.48 107.803 277.736C107.462 277.981 107.184 278.307 106.971 278.712C106.758 279.117 106.603 279.581 106.507 280.104C106.422 280.616 106.379 281.139 106.379 281.672C106.379 282.205 106.422 282.733 106.507 283.256C106.603 283.768 106.758 284.232 106.971 284.648C107.184 285.053 107.462 285.384 107.803 285.64C108.155 285.885 108.587 286.008 109.099 286.008Z" fill="#4C4948"/>
<path d="M109.099 337.192C108.363 337.192 107.739 337.027 107.227 336.696C106.715 336.365 106.294 335.939 105.963 335.416C105.632 334.883 105.392 334.291 105.243 333.64C105.094 332.979 105.019 332.323 105.019 331.672C105.019 331.021 105.094 330.371 105.243 329.72C105.392 329.059 105.632 328.467 105.963 327.944C106.294 327.421 106.715 326.995 107.227 326.664C107.739 326.333 108.363 326.168 109.099 326.168C109.824 326.168 110.443 326.333 110.955 326.664C111.478 326.995 111.899 327.421 112.219 327.944C112.55 328.467 112.79 329.059 112.939 329.72C113.099 330.371 113.179 331.021 113.179 331.672C113.179 332.323 113.099 332.979 112.939 333.64C112.79 334.291 112.55 334.883 112.219 335.416C111.899 335.939 111.478 336.365 110.955 336.696C110.443 337.027 109.824 337.192 109.099 337.192ZM109.099 336.008C109.611 336.008 110.038 335.885 110.379 335.64C110.731 335.384 111.014 335.053 111.227 334.648C111.44 334.232 111.59 333.768 111.675 333.256C111.771 332.733 111.819 332.205 111.819 331.672C111.819 331.139 111.771 330.616 111.675 330.104C111.59 329.581 111.44 329.117 111.227 328.712C111.014 328.307 110.731 327.981 110.379 327.736C110.038 327.48 109.611 327.352 109.099 327.352C108.587 327.352 108.155 327.48 107.803 327.736C107.462 327.981 107.184 328.307 106.971 328.712C106.758 329.117 106.603 329.581 106.507 330.104C106.422 330.616 106.379 331.139 106.379 331.672C106.379 332.205 106.422 332.733 106.507 333.256C106.603 333.768 106.758 334.232 106.971 334.648C107.184 335.053 107.462 335.384 107.803 335.64C108.155 335.885 108.587 336.008 109.099 336.008Z" fill="#4C4948"/>
<path d="M80.0843 187.192C79.3376 187.192 78.7029 187.043 78.1803 186.744C77.6576 186.435 77.2309 186.029 76.9003 185.528C76.5803 185.016 76.3456 184.429 76.1963 183.768C76.0469 183.107 75.9723 182.413 75.9723 181.688C75.9723 180.963 76.0576 180.269 76.2283 179.608C76.3989 178.936 76.6603 178.349 77.0123 177.848C77.3749 177.336 77.8283 176.931 78.3723 176.632C78.9163 176.323 79.5616 176.168 80.3083 176.168C81.0016 176.168 81.5829 176.291 82.0523 176.536C82.5323 176.771 82.9376 177.075 83.2683 177.448L82.5963 178.44C82.3189 178.12 82.0096 177.859 81.6683 177.656C81.3269 177.453 80.8736 177.352 80.3083 177.352C79.7963 177.352 79.3483 177.475 78.9643 177.72C78.5909 177.955 78.2763 178.269 78.0203 178.664C77.7749 179.059 77.5936 179.507 77.4763 180.008C77.3589 180.509 77.3003 181.021 77.3003 181.544C77.3003 181.619 77.3003 181.688 77.3003 181.752C77.3003 181.816 77.3056 181.885 77.3163 181.96C77.4336 181.779 77.5883 181.592 77.7803 181.4C77.9829 181.197 78.2176 181.016 78.4843 180.856C78.7509 180.696 79.0389 180.563 79.3483 180.456C79.6683 180.349 79.9989 180.296 80.3403 180.296C80.8203 180.296 81.2683 180.371 81.6843 180.52C82.1109 180.659 82.4843 180.872 82.8043 181.16C83.1243 181.437 83.3749 181.789 83.5563 182.216C83.7376 182.643 83.8283 183.139 83.8283 183.704C83.8283 184.173 83.7429 184.621 83.5723 185.048C83.4016 185.464 83.1563 185.832 82.8363 186.152C82.5163 186.472 82.1216 186.728 81.6523 186.92C81.1936 187.101 80.6709 187.192 80.0843 187.192ZM80.0363 186.008C80.4523 186.008 80.8096 185.939 81.1083 185.8C81.4176 185.661 81.6736 185.485 81.8763 185.272C82.0789 185.048 82.2283 184.803 82.3243 184.536C82.4309 184.269 82.4843 184.008 82.4843 183.752C82.4843 183.357 82.4203 183.016 82.2923 182.728C82.1643 182.44 81.9883 182.2 81.7643 182.008C81.5403 181.816 81.2789 181.677 80.9803 181.592C80.6816 181.496 80.3616 181.448 80.0203 181.448C79.4869 181.448 78.9803 181.597 78.5003 181.896C78.0309 182.184 77.6469 182.568 77.3483 183.048C77.3803 183.379 77.4496 183.72 77.5563 184.072C77.6736 184.424 77.8336 184.744 78.0363 185.032C78.2496 185.32 78.5163 185.555 78.8363 185.736C79.1669 185.917 79.5669 186.008 80.0363 186.008ZM89.5054 187.192C88.7694 187.192 88.1454 187.027 87.6334 186.696C87.1214 186.365 86.7 185.939 86.3694 185.416C86.0387 184.883 85.7987 184.291 85.6494 183.64C85.5 182.979 85.4254 182.323 85.4254 181.672C85.4254 181.021 85.5 180.371 85.6494 179.72C85.7987 179.059 86.0387 178.467 86.3694 177.944C86.7 177.421 87.1214 176.995 87.6334 176.664C88.1454 176.333 88.7694 176.168 89.5054 176.168C90.2307 176.168 90.8494 176.333 91.3614 176.664C91.884 176.995 92.3054 177.421 92.6254 177.944C92.956 178.467 93.196 179.059 93.3454 179.72C93.5054 180.371 93.5854 181.021 93.5854 181.672C93.5854 182.323 93.5054 182.979 93.3454 183.64C93.196 184.291 92.956 184.883 92.6254 185.416C92.3054 185.939 91.884 186.365 91.3614 186.696C90.8494 187.027 90.2307 187.192 89.5054 187.192ZM89.5054 186.008C90.0174 186.008 90.444 185.885 90.7854 185.64C91.1374 185.384 91.42 185.053 91.6334 184.648C91.8467 184.232 91.996 183.768 92.0814 183.256C92.1774 182.733 92.2254 182.205 92.2254 181.672C92.2254 181.139 92.1774 180.616 92.0814 180.104C91.996 179.581 91.8467 179.117 91.6334 178.712C91.42 178.307 91.1374 177.981 90.7854 177.736C90.444 177.48 90.0174 177.352 89.5054 177.352C88.9934 177.352 88.5614 177.48 88.2094 177.736C87.868 177.981 87.5907 178.307 87.3774 178.712C87.164 179.117 87.0094 179.581 86.9134 180.104C86.828 180.616 86.7854 181.139 86.7854 181.672C86.7854 182.205 86.828 182.733 86.9134 183.256C87.0094 183.768 87.164 184.232 87.3774 184.648C87.5907 185.053 87.868 185.384 88.2094 185.64C88.5614 185.885 88.9934 186.008 89.5054 186.008ZM99.3023 187.192C98.5663 187.192 97.9423 187.027 97.4303 186.696C96.9183 186.365 96.4969 185.939 96.1663 185.416C95.8356 184.883 95.5956 184.291 95.4463 183.64C95.2969 182.979 95.2223 182.323 95.2223 181.672C95.2223 181.021 95.2969 180.371 95.4463 179.72C95.5956 179.059 95.8356 178.467 96.1663 177.944C96.4969 177.421 96.9183 176.995 97.4303 176.664C97.9423 176.333 98.5663 176.168 99.3023 176.168C100.028 176.168 100.646 176.333 101.158 176.664C101.681 176.995 102.102 177.421 102.422 177.944C102.753 178.467 102.993 179.059 103.142 179.72C103.302 180.371 103.382 181.021 103.382 181.672C103.382 182.323 103.302 182.979 103.142 183.64C102.993 184.291 102.753 184.883 102.422 185.416C102.102 185.939 101.681 186.365 101.158 186.696C100.646 187.027 100.028 187.192 99.3023 187.192ZM99.3023 186.008C99.8143 186.008 100.241 185.885 100.582 185.64C100.934 185.384 101.217 185.053 101.43 184.648C101.644 184.232 101.793 183.768 101.878 183.256C101.974 182.733 102.022 182.205 102.022 181.672C102.022 181.139 101.974 180.616 101.878 180.104C101.793 179.581 101.644 179.117 101.43 178.712C101.217 178.307 100.934 177.981 100.582 177.736C100.241 177.48 99.8143 177.352 99.3023 177.352C98.7903 177.352 98.3583 177.48 98.0063 177.736C97.6649 177.981 97.3876 178.307 97.1743 178.712C96.9609 179.117 96.8063 179.581 96.7103 180.104C96.6249 180.616 96.5823 181.139 96.5823 181.672C96.5823 182.205 96.6249 182.733 96.7103 183.256C96.8063 183.768 96.9609 184.232 97.1743 184.648C97.3876 185.053 97.6649 185.384 98.0063 185.64C98.3583 185.885 98.7903 186.008 99.3023 186.008ZM109.099 187.192C108.363 187.192 107.739 187.027 107.227 186.696C106.715 186.365 106.294 185.939 105.963 185.416C105.632 184.883 105.392 184.291 105.243 183.64C105.094 182.979 105.019 182.323 105.019 181.672C105.019 181.021 105.094 180.371 105.243 179.72C105.392 179.059 105.632 178.467 105.963 177.944C106.294 177.421 106.715 176.995 107.227 176.664C107.739 176.333 108.363 176.168 109.099 176.168C109.824 176.168 110.443 176.333 110.955 176.664C111.478 176.995 111.899 177.421 112.219 177.944C112.55 178.467 112.79 179.059 112.939 179.72C113.099 180.371 113.179 181.021 113.179 181.672C113.179 182.323 113.099 182.979 112.939 183.64C112.79 184.291 112.55 184.883 112.219 185.416C111.899 185.939 111.478 186.365 110.955 186.696C110.443 187.027 109.824 187.192 109.099 187.192ZM109.099 186.008C109.611 186.008 110.038 185.885 110.379 185.64C110.731 185.384 111.014 185.053 111.227 184.648C111.44 184.232 111.59 183.768 111.675 183.256C111.771 182.733 111.819 182.205 111.819 181.672C111.819 181.139 111.771 180.616 111.675 180.104C111.59 179.581 111.44 179.117 111.227 178.712C111.014 178.307 110.731 177.981 110.379 177.736C110.038 177.48 109.611 177.352 109.099 177.352C108.587 177.352 108.155 177.48 107.803 177.736C107.462 177.981 107.184 178.307 106.971 178.712C106.758 179.117 106.603 179.581 106.507 180.104C106.422 180.616 106.379 181.139 106.379 181.672C106.379 182.205 106.422 182.733 106.507 183.256C106.603 183.768 106.758 184.232 106.971 184.648C107.184 185.053 107.462 185.384 107.803 185.64C108.155 185.885 108.587 186.008 109.099 186.008Z" fill="#4C4948"/>
<path d="M81.2715 237V234.296H76.1995V233.192L80.7755 226.328H82.5995V233.128H84.1035V234.296H82.5995V237H81.2715ZM81.2715 227.56L77.5275 233.128H81.2715V227.56ZM89.5054 237.192C88.7694 237.192 88.1454 237.027 87.6334 236.696C87.1214 236.365 86.7 235.939 86.3694 235.416C86.0387 234.883 85.7987 234.291 85.6494 233.64C85.5 232.979 85.4254 232.323 85.4254 231.672C85.4254 231.021 85.5 230.371 85.6494 229.72C85.7987 229.059 86.0387 228.467 86.3694 227.944C86.7 227.421 87.1214 226.995 87.6334 226.664C88.1454 226.333 88.7694 226.168 89.5054 226.168C90.2307 226.168 90.8494 226.333 91.3614 226.664C91.884 226.995 92.3054 227.421 92.6254 227.944C92.956 228.467 93.196 229.059 93.3454 229.72C93.5054 230.371 93.5854 231.021 93.5854 231.672C93.5854 232.323 93.5054 232.979 93.3454 233.64C93.196 234.291 92.956 234.883 92.6254 235.416C92.3054 235.939 91.884 236.365 91.3614 236.696C90.8494 237.027 90.2307 237.192 89.5054 237.192ZM89.5054 236.008C90.0174 236.008 90.444 235.885 90.7854 235.64C91.1374 235.384 91.42 235.053 91.6334 234.648C91.8467 234.232 91.996 233.768 92.0814 233.256C92.1774 232.733 92.2254 232.205 92.2254 231.672C92.2254 231.139 92.1774 230.616 92.0814 230.104C91.996 229.581 91.8467 229.117 91.6334 228.712C91.42 228.307 91.1374 227.981 90.7854 227.736C90.444 227.48 90.0174 227.352 89.5054 227.352C88.9934 227.352 88.5614 227.48 88.2094 227.736C87.868 227.981 87.5907 228.307 87.3774 228.712C87.164 229.117 87.0094 229.581 86.9134 230.104C86.828 230.616 86.7854 231.139 86.7854 231.672C86.7854 232.205 86.828 232.733 86.9134 233.256C87.0094 233.768 87.164 234.232 87.3774 234.648C87.5907 235.053 87.868 235.384 88.2094 235.64C88.5614 235.885 88.9934 236.008 89.5054 236.008ZM99.3023 237.192C98.5663 237.192 97.9423 237.027 97.4303 236.696C96.9183 236.365 96.4969 235.939 96.1663 235.416C95.8356 234.883 95.5956 234.291 95.4463 233.64C95.2969 232.979 95.2223 232.323 95.2223 231.672C95.2223 231.021 95.2969 230.371 95.4463 229.72C95.5956 229.059 95.8356 228.467 96.1663 227.944C96.4969 227.421 96.9183 226.995 97.4303 226.664C97.9423 226.333 98.5663 226.168 99.3023 226.168C100.028 226.168 100.646 226.333 101.158 226.664C101.681 226.995 102.102 227.421 102.422 227.944C102.753 228.467 102.993 229.059 103.142 229.72C103.302 230.371 103.382 231.021 103.382 231.672C103.382 232.323 103.302 232.979 103.142 233.64C102.993 234.291 102.753 234.883 102.422 235.416C102.102 235.939 101.681 236.365 101.158 236.696C100.646 237.027 100.028 237.192 99.3023 237.192ZM99.3023 236.008C99.8143 236.008 100.241 235.885 100.582 235.64C100.934 235.384 101.217 235.053 101.43 234.648C101.644 234.232 101.793 233.768 101.878 233.256C101.974 232.733 102.022 232.205 102.022 231.672C102.022 231.139 101.974 230.616 101.878 230.104C101.793 229.581 101.644 229.117 101.43 228.712C101.217 228.307 100.934 227.981 100.582 227.736C100.241 227.48 99.8143 227.352 99.3023 227.352C98.7903 227.352 98.3583 227.48 98.0063 227.736C97.6649 227.981 97.3876 228.307 97.1743 228.712C96.9609 229.117 96.8063 229.581 96.7103 230.104C96.6249 230.616 96.5823 231.139 96.5823 231.672C96.5823 232.205 96.6249 232.733 96.7103 233.256C96.8063 233.768 96.9609 234.232 97.1743 234.648C97.3876 235.053 97.6649 235.384 98.0063 235.64C98.3583 235.885 98.7903 236.008 99.3023 236.008ZM109.099 237.192C108.363 237.192 107.739 237.027 107.227 236.696C106.715 236.365 106.294 235.939 105.963 235.416C105.632 234.883 105.392 234.291 105.243 233.64C105.094 232.979 105.019 232.323 105.019 231.672C105.019 231.021 105.094 230.371 105.243 229.72C105.392 229.059 105.632 228.467 105.963 227.944C106.294 227.421 106.715 226.995 107.227 226.664C107.739 226.333 108.363 226.168 109.099 226.168C109.824 226.168 110.443 226.333 110.955 226.664C111.478 226.995 111.899 227.421 112.219 227.944C112.55 228.467 112.79 229.059 112.939 229.72C113.099 230.371 113.179 231.021 113.179 231.672C113.179 232.323 113.099 232.979 112.939 233.64C112.79 234.291 112.55 234.883 112.219 235.416C111.899 235.939 111.478 236.365 110.955 236.696C110.443 237.027 109.824 237.192 109.099 237.192ZM109.099 236.008C109.611 236.008 110.038 235.885 110.379 235.64C110.731 235.384 111.014 235.053 111.227 234.648C111.44 234.232 111.59 233.768 111.675 233.256C111.771 232.733 111.819 232.205 111.819 231.672C111.819 231.139 111.771 230.616 111.675 230.104C111.59 229.581 111.44 229.117 111.227 228.712C111.014 228.307 110.731 227.981 110.379 227.736C110.038 227.48 109.611 227.352 109.099 227.352C108.587 227.352 108.155 227.48 107.803 227.736C107.462 227.981 107.184 228.307 106.971 228.712C106.758 229.117 106.603 229.581 106.507 230.104C106.422 230.616 106.379 231.139 106.379 231.672C106.379 232.205 106.422 232.733 106.507 233.256C106.603 233.768 106.758 234.232 106.971 234.648C107.184 235.053 107.462 235.384 107.803 235.64C108.155 235.885 108.587 236.008 109.099 236.008Z" fill="#4C4948"/>
<path d="M79.9685 137.192C79.4352 137.192 78.9338 137.128 78.4645 137C78.0058 136.872 77.6058 136.685 77.2645 136.44C76.9232 136.184 76.6512 135.88 76.4485 135.528C76.2458 135.165 76.1445 134.755 76.1445 134.296C76.1445 133.944 76.2138 133.619 76.3525 133.32C76.4912 133.021 76.6778 132.755 76.9125 132.52C77.1472 132.275 77.4192 132.067 77.7285 131.896C78.0378 131.725 78.3578 131.592 78.6885 131.496C78.3792 131.411 78.0805 131.293 77.7925 131.144C77.5152 130.995 77.2645 130.819 77.0405 130.616C76.8272 130.403 76.6512 130.157 76.5125 129.88C76.3845 129.603 76.3205 129.288 76.3205 128.936C76.3205 128.456 76.4272 128.045 76.6405 127.704C76.8538 127.352 77.1312 127.064 77.4725 126.84C77.8245 126.605 78.2138 126.435 78.6405 126.328C79.0778 126.221 79.5205 126.168 79.9685 126.168C80.4058 126.168 80.8432 126.221 81.2805 126.328C81.7178 126.435 82.1072 126.605 82.4485 126.84C82.8005 127.064 83.0832 127.352 83.2965 127.704C83.5205 128.045 83.6325 128.456 83.6325 128.936C83.6325 129.288 83.5632 129.603 83.4245 129.88C83.2965 130.157 83.1205 130.403 82.8965 130.616C82.6832 130.819 82.4325 130.995 82.1445 131.144C81.8565 131.293 81.5578 131.411 81.2485 131.496C81.5792 131.592 81.8992 131.725 82.2085 131.896C82.5178 132.067 82.7898 132.275 83.0245 132.52C83.2592 132.755 83.4458 133.021 83.5845 133.32C83.7232 133.619 83.7925 133.944 83.7925 134.296C83.7925 134.744 83.6912 135.149 83.4885 135.512C83.2858 135.875 83.0085 136.179 82.6565 136.424C82.3152 136.669 81.9098 136.861 81.4405 137C80.9818 137.128 80.4912 137.192 79.9685 137.192ZM79.9685 130.952C80.1285 130.92 80.3418 130.872 80.6085 130.808C80.8752 130.733 81.1312 130.627 81.3765 130.488C81.6218 130.339 81.8352 130.152 82.0165 129.928C82.1978 129.704 82.2885 129.432 82.2885 129.112C82.2885 128.835 82.2245 128.589 82.0965 128.376C81.9792 128.152 81.8138 127.965 81.6005 127.816C81.3978 127.667 81.1525 127.555 80.8645 127.48C80.5872 127.395 80.2885 127.352 79.9685 127.352C79.6485 127.352 79.3445 127.395 79.0565 127.48C78.7792 127.555 78.5338 127.667 78.3205 127.816C78.1178 127.965 77.9525 128.152 77.8245 128.376C77.7072 128.589 77.6485 128.835 77.6485 129.112C77.6485 129.432 77.7392 129.704 77.9205 129.928C78.1018 130.152 78.3152 130.339 78.5605 130.488C78.8165 130.627 79.0725 130.733 79.3285 130.808C79.5952 130.872 79.8085 130.92 79.9685 130.952ZM79.9685 136.008C80.2992 136.008 80.6138 135.965 80.9125 135.88C81.2112 135.795 81.4725 135.672 81.6965 135.512C81.9312 135.352 82.1125 135.16 82.2405 134.936C82.3792 134.701 82.4485 134.44 82.4485 134.152C82.4485 133.8 82.3472 133.501 82.1445 133.256C81.9525 133 81.7232 132.792 81.4565 132.632C81.1898 132.461 80.9125 132.333 80.6245 132.248C80.3472 132.163 80.1285 132.109 79.9685 132.088C79.8085 132.109 79.5845 132.163 79.2965 132.248C79.0192 132.333 78.7418 132.461 78.4645 132.632C78.1978 132.792 77.9632 133 77.7605 133.256C77.5685 133.501 77.4725 133.8 77.4725 134.152C77.4725 134.44 77.5365 134.701 77.6645 134.936C77.8032 135.16 77.9845 135.352 78.2085 135.512C78.4432 135.672 78.7098 135.795 79.0085 135.88C79.3178 135.965 79.6378 136.008 79.9685 136.008ZM89.5054 137.192C88.7694 137.192 88.1454 137.027 87.6334 136.696C87.1214 136.365 86.7 135.939 86.3694 135.416C86.0387 134.883 85.7987 134.291 85.6494 133.64C85.5 132.979 85.4254 132.323 85.4254 131.672C85.4254 131.021 85.5 130.371 85.6494 129.72C85.7987 129.059 86.0387 128.467 86.3694 127.944C86.7 127.421 87.1214 126.995 87.6334 126.664C88.1454 126.333 88.7694 126.168 89.5054 126.168C90.2307 126.168 90.8494 126.333 91.3614 126.664C91.884 126.995 92.3054 127.421 92.6254 127.944C92.956 128.467 93.196 129.059 93.3454 129.72C93.5054 130.371 93.5854 131.021 93.5854 131.672C93.5854 132.323 93.5054 132.979 93.3454 133.64C93.196 134.291 92.956 134.883 92.6254 135.416C92.3054 135.939 91.884 136.365 91.3614 136.696C90.8494 137.027 90.2307 137.192 89.5054 137.192ZM89.5054 136.008C90.0174 136.008 90.444 135.885 90.7854 135.64C91.1374 135.384 91.42 135.053 91.6334 134.648C91.8467 134.232 91.996 133.768 92.0814 133.256C92.1774 132.733 92.2254 132.205 92.2254 131.672C92.2254 131.139 92.1774 130.616 92.0814 130.104C91.996 129.581 91.8467 129.117 91.6334 128.712C91.42 128.307 91.1374 127.981 90.7854 127.736C90.444 127.48 90.0174 127.352 89.5054 127.352C88.9934 127.352 88.5614 127.48 88.2094 127.736C87.868 127.981 87.5907 128.307 87.3774 128.712C87.164 129.117 87.0094 129.581 86.9134 130.104C86.828 130.616 86.7854 131.139 86.7854 131.672C86.7854 132.205 86.828 132.733 86.9134 133.256C87.0094 133.768 87.164 134.232 87.3774 134.648C87.5907 135.053 87.868 135.384 88.2094 135.64C88.5614 135.885 88.9934 136.008 89.5054 136.008ZM99.3023 137.192C98.5663 137.192 97.9423 137.027 97.4303 136.696C96.9183 136.365 96.4969 135.939 96.1663 135.416C95.8356 134.883 95.5956 134.291 95.4463 133.64C95.2969 132.979 95.2223 132.323 95.2223 131.672C95.2223 131.021 95.2969 130.371 95.4463 129.72C95.5956 129.059 95.8356 128.467 96.1663 127.944C96.4969 127.421 96.9183 126.995 97.4303 126.664C97.9423 126.333 98.5663 126.168 99.3023 126.168C100.028 126.168 100.646 126.333 101.158 126.664C101.681 126.995 102.102 127.421 102.422 127.944C102.753 128.467 102.993 129.059 103.142 129.72C103.302 130.371 103.382 131.021 103.382 131.672C103.382 132.323 103.302 132.979 103.142 133.64C102.993 134.291 102.753 134.883 102.422 135.416C102.102 135.939 101.681 136.365 101.158 136.696C100.646 137.027 100.028 137.192 99.3023 137.192ZM99.3023 136.008C99.8143 136.008 100.241 135.885 100.582 135.64C100.934 135.384 101.217 135.053 101.43 134.648C101.644 134.232 101.793 133.768 101.878 133.256C101.974 132.733 102.022 132.205 102.022 131.672C102.022 131.139 101.974 130.616 101.878 130.104C101.793 129.581 101.644 129.117 101.43 128.712C101.217 128.307 100.934 127.981 100.582 127.736C100.241 127.48 99.8143 127.352 99.3023 127.352C98.7903 127.352 98.3583 127.48 98.0063 127.736C97.6649 127.981 97.3876 128.307 97.1743 128.712C96.9609 129.117 96.8063 129.581 96.7103 130.104C96.6249 130.616 96.5823 131.139 96.5823 131.672C96.5823 132.205 96.6249 132.733 96.7103 133.256C96.8063 133.768 96.9609 134.232 97.1743 134.648C97.3876 135.053 97.6649 135.384 98.0063 135.64C98.3583 135.885 98.7903 136.008 99.3023 136.008ZM109.099 137.192C108.363 137.192 107.739 137.027 107.227 136.696C106.715 136.365 106.294 135.939 105.963 135.416C105.632 134.883 105.392 134.291 105.243 133.64C105.094 132.979 105.019 132.323 105.019 131.672C105.019 131.021 105.094 130.371 105.243 129.72C105.392 129.059 105.632 128.467 105.963 127.944C106.294 127.421 106.715 126.995 107.227 126.664C107.739 126.333 108.363 126.168 109.099 126.168C109.824 126.168 110.443 126.333 110.955 126.664C111.478 126.995 111.899 127.421 112.219 127.944C112.55 128.467 112.79 129.059 112.939 129.72C113.099 130.371 113.179 131.021 113.179 131.672C113.179 132.323 113.099 132.979 112.939 133.64C112.79 134.291 112.55 134.883 112.219 135.416C111.899 135.939 111.478 136.365 110.955 136.696C110.443 137.027 109.824 137.192 109.099 137.192ZM109.099 136.008C109.611 136.008 110.038 135.885 110.379 135.64C110.731 135.384 111.014 135.053 111.227 134.648C111.44 134.232 111.59 133.768 111.675 133.256C111.771 132.733 111.819 132.205 111.819 131.672C111.819 131.139 111.771 130.616 111.675 130.104C111.59 129.581 111.44 129.117 111.227 128.712C111.014 128.307 110.731 127.981 110.379 127.736C110.038 127.48 109.611 127.352 109.099 127.352C108.587 127.352 108.155 127.48 107.803 127.736C107.462 127.981 107.184 128.307 106.971 128.712C106.758 129.117 106.603 129.581 106.507 130.104C106.422 130.616 106.379 131.139 106.379 131.672C106.379 132.205 106.422 132.733 106.507 133.256C106.603 133.768 106.758 134.232 106.971 134.648C107.184 135.053 107.462 135.384 107.803 135.64C108.155 135.885 108.587 136.008 109.099 136.008Z" fill="#4C4948"/>
<path d="M69.5511 87V78.088L67.8391 79.896L67.0391 79.08L69.7111 76.328H70.8791V87H69.5511ZM77.021 87.192C76.285 87.192 75.661 87.0267 75.149 86.696C74.637 86.3653 74.2157 85.9387 73.885 85.416C73.5543 84.8827 73.3143 84.2907 73.165 83.64C73.0157 82.9787 72.941 82.3227 72.941 81.672C72.941 81.0213 73.0157 80.3707 73.165 79.72C73.3143 79.0587 73.5543 78.4667 73.885 77.944C74.2157 77.4213 74.637 76.9947 75.149 76.664C75.661 76.3333 76.285 76.168 77.021 76.168C77.7463 76.168 78.365 76.3333 78.877 76.664C79.3997 76.9947 79.821 77.4213 80.141 77.944C80.4717 78.4667 80.7117 79.0587 80.861 79.72C81.021 80.3707 81.101 81.0213 81.101 81.672C81.101 82.3227 81.021 82.9787 80.861 83.64C80.7117 84.2907 80.4717 84.8827 80.141 85.416C79.821 85.9387 79.3997 86.3653 78.877 86.696C78.365 87.0267 77.7463 87.192 77.021 87.192ZM77.021 86.008C77.533 86.008 77.9597 85.8853 78.301 85.64C78.653 85.384 78.9357 85.0533 79.149 84.648C79.3623 84.232 79.5117 83.768 79.597 83.256C79.693 82.7333 79.741 82.2053 79.741 81.672C79.741 81.1387 79.693 80.616 79.597 80.104C79.5117 79.5813 79.3623 79.1173 79.149 78.712C78.9357 78.3067 78.653 77.9813 78.301 77.736C77.9597 77.48 77.533 77.352 77.021 77.352C76.509 77.352 76.077 77.48 75.725 77.736C75.3837 77.9813 75.1063 78.3067 74.893 78.712C74.6797 79.1173 74.525 79.5813 74.429 80.104C74.3437 80.616 74.301 81.1387 74.301 81.672C74.301 82.2053 74.3437 82.7333 74.429 83.256C74.525 83.768 74.6797 84.232 74.893 84.648C75.1063 85.0533 75.3837 85.384 75.725 85.64C76.077 85.8853 76.509 86.008 77.021 86.008ZM84.2379 86.616C84.2379 87.1067 84.1099 87.5653 83.8539 87.992C83.6085 88.4187 83.2992 88.7653 82.9259 89.032L82.3339 88.536C82.5899 88.3653 82.8192 88.1413 83.0219 87.864C83.2245 87.5867 83.3419 87.3147 83.3739 87.048C83.3312 87.0693 83.2565 87.08 83.1499 87.08C82.9259 87.08 82.7392 87.0053 82.5899 86.856C82.4512 86.7067 82.3819 86.5093 82.3819 86.264C82.3819 86.0293 82.4619 85.8267 82.6219 85.656C82.7819 85.4853 82.9845 85.4 83.2299 85.4C83.4965 85.4 83.7312 85.5067 83.9339 85.72C84.1365 85.9333 84.2379 86.232 84.2379 86.616ZM89.5054 87.192C88.7694 87.192 88.1454 87.0267 87.6334 86.696C87.1214 86.3653 86.7 85.9387 86.3694 85.416C86.0387 84.8827 85.7987 84.2907 85.6494 83.64C85.5 82.9787 85.4254 82.3227 85.4254 81.672C85.4254 81.0213 85.5 80.3707 85.6494 79.72C85.7987 79.0587 86.0387 78.4667 86.3694 77.944C86.7 77.4213 87.1214 76.9947 87.6334 76.664C88.1454 76.3333 88.7694 76.168 89.5054 76.168C90.2307 76.168 90.8494 76.3333 91.3614 76.664C91.884 76.9947 92.3054 77.4213 92.6254 77.944C92.956 78.4667 93.196 79.0587 93.3454 79.72C93.5054 80.3707 93.5854 81.0213 93.5854 81.672C93.5854 82.3227 93.5054 82.9787 93.3454 83.64C93.196 84.2907 92.956 84.8827 92.6254 85.416C92.3054 85.9387 91.884 86.3653 91.3614 86.696C90.8494 87.0267 90.2307 87.192 89.5054 87.192ZM89.5054 86.008C90.0174 86.008 90.444 85.8853 90.7854 85.64C91.1374 85.384 91.42 85.0533 91.6334 84.648C91.8467 84.232 91.996 83.768 92.0814 83.256C92.1774 82.7333 92.2254 82.2053 92.2254 81.672C92.2254 81.1387 92.1774 80.616 92.0814 80.104C91.996 79.5813 91.8467 79.1173 91.6334 78.712C91.42 78.3067 91.1374 77.9813 90.7854 77.736C90.444 77.48 90.0174 77.352 89.5054 77.352C88.9934 77.352 88.5614 77.48 88.2094 77.736C87.868 77.9813 87.5907 78.3067 87.3774 78.712C87.164 79.1173 87.0094 79.5813 86.9134 80.104C86.828 80.616 86.7854 81.1387 86.7854 81.672C86.7854 82.2053 86.828 82.7333 86.9134 83.256C87.0094 83.768 87.164 84.232 87.3774 84.648C87.5907 85.0533 87.868 85.384 88.2094 85.64C88.5614 85.8853 88.9934 86.008 89.5054 86.008ZM99.3023 87.192C98.5663 87.192 97.9423 87.0267 97.4303 86.696C96.9183 86.3653 96.4969 85.9387 96.1663 85.416C95.8356 84.8827 95.5956 84.2907 95.4463 83.64C95.2969 82.9787 95.2223 82.3227 95.2223 81.672C95.2223 81.0213 95.2969 80.3707 95.4463 79.72C95.5956 79.0587 95.8356 78.4667 96.1663 77.944C96.4969 77.4213 96.9183 76.9947 97.4303 76.664C97.9423 76.3333 98.5663 76.168 99.3023 76.168C100.028 76.168 100.646 76.3333 101.158 76.664C101.681 76.9947 102.102 77.4213 102.422 77.944C102.753 78.4667 102.993 79.0587 103.142 79.72C103.302 80.3707 103.382 81.0213 103.382 81.672C103.382 82.3227 103.302 82.9787 103.142 83.64C102.993 84.2907 102.753 84.8827 102.422 85.416C102.102 85.9387 101.681 86.3653 101.158 86.696C100.646 87.0267 100.028 87.192 99.3023 87.192ZM99.3023 86.008C99.8143 86.008 100.241 85.8853 100.582 85.64C100.934 85.384 101.217 85.0533 101.43 84.648C101.644 84.232 101.793 83.768 101.878 83.256C101.974 82.7333 102.022 82.2053 102.022 81.672C102.022 81.1387 101.974 80.616 101.878 80.104C101.793 79.5813 101.644 79.1173 101.43 78.712C101.217 78.3067 100.934 77.9813 100.582 77.736C100.241 77.48 99.8143 77.352 99.3023 77.352C98.7903 77.352 98.3583 77.48 98.0063 77.736C97.6649 77.9813 97.3876 78.3067 97.1743 78.712C96.9609 79.1173 96.8063 79.5813 96.7103 80.104C96.6249 80.616 96.5823 81.1387 96.5823 81.672C96.5823 82.2053 96.6249 82.7333 96.7103 83.256C96.8063 83.768 96.9609 84.232 97.1743 84.648C97.3876 85.0533 97.6649 85.384 98.0063 85.64C98.3583 85.8853 98.7903 86.008 99.3023 86.008ZM109.099 87.192C108.363 87.192 107.739 87.0267 107.227 86.696C106.715 86.3653 106.294 85.9387 105.963 85.416C105.632 84.8827 105.392 84.2907 105.243 83.64C105.094 82.9787 105.019 82.3227 105.019 81.672C105.019 81.0213 105.094 80.3707 105.243 79.72C105.392 79.0587 105.632 78.4667 105.963 77.944C106.294 77.4213 106.715 76.9947 107.227 76.664C107.739 76.3333 108.363 76.168 109.099 76.168C109.824 76.168 110.443 76.3333 110.955 76.664C111.478 76.9947 111.899 77.4213 112.219 77.944C112.55 78.4667 112.79 79.0587 112.939 79.72C113.099 80.3707 113.179 81.0213 113.179 81.672C113.179 82.3227 113.099 82.9787 112.939 83.64C112.79 84.2907 112.55 84.8827 112.219 85.416C111.899 85.9387 111.478 86.3653 110.955 86.696C110.443 87.0267 109.824 87.192 109.099 87.192ZM109.099 86.008C109.611 86.008 110.038 85.8853 110.379 85.64C110.731 85.384 111.014 85.0533 111.227 84.648C111.44 84.232 111.59 83.768 111.675 83.256C111.771 82.7333 111.819 82.2053 111.819 81.672C111.819 81.1387 111.771 80.616 111.675 80.104C111.59 79.5813 111.44 79.1173 111.227 78.712C111.014 78.3067 110.731 77.9813 110.379 77.736C110.038 77.48 109.611 77.352 109.099 77.352C108.587 77.352 108.155 77.48 107.803 77.736C107.462 77.9813 107.184 78.3067 106.971 78.712C106.758 79.1173 106.603 79.5813 106.507 80.104C106.422 80.616 106.379 81.1387 106.379 81.672C106.379 82.2053 106.422 82.7333 106.507 83.256C106.603 83.768 106.758 84.232 106.971 84.648C107.184 85.0533 107.462 85.384 107.803 85.64C108.155 85.8853 108.587 86.008 109.099 86.008Z" fill="#4C4948"/>
<path d="M293 198C293 189.163 300.163 182 309 182H341C349.837 182 357 189.163 357 198V333H293V198Z" fill="#D9893A"/>
<path d="M310.526 364.288C309.662 364.288 308.886 364.144 308.198 363.856C307.526 363.568 306.91 363.096 306.35 362.44L307.382 360.928C307.734 361.344 308.15 361.712 308.63 362.032C309.11 362.352 309.702 362.512 310.406 362.512C311.398 362.512 312.182 362.208 312.758 361.6C313.334 360.976 313.622 360.16 313.622 359.152V347.992H315.614V359.176C315.614 360.04 315.478 360.8 315.206 361.456C314.95 362.096 314.59 362.624 314.126 363.04C313.678 363.456 313.142 363.768 312.518 363.976C311.91 364.184 311.246 364.288 310.526 364.288ZM327.101 364V362.368C326.653 362.88 326.069 363.328 325.349 363.712C324.629 364.096 323.837 364.288 322.973 364.288C321.757 364.288 320.837 363.992 320.213 363.4C319.589 362.792 319.277 361.856 319.277 360.592V352.408H321.077V360.04C321.077 360.552 321.133 360.976 321.245 361.312C321.373 361.648 321.549 361.92 321.773 362.128C322.013 362.336 322.293 362.48 322.613 362.56C322.933 362.64 323.285 362.68 323.669 362.68C324.373 362.68 325.037 362.504 325.661 362.152C326.285 361.8 326.765 361.392 327.101 360.928V352.408H328.901V364H327.101ZM340.319 364V356.416C340.319 355.392 340.079 354.688 339.599 354.304C339.135 353.92 338.511 353.728 337.727 353.728C337.375 353.728 337.031 353.776 336.695 353.872C336.359 353.968 336.039 354.104 335.735 354.28C335.431 354.44 335.151 354.632 334.895 354.856C334.655 355.064 334.455 355.288 334.295 355.528V364H332.495V352.408H334.295V354.088C334.503 353.848 334.751 353.616 335.039 353.392C335.327 353.152 335.647 352.936 335.999 352.744C336.367 352.552 336.751 352.4 337.151 352.288C337.567 352.176 337.991 352.12 338.423 352.12C340.887 352.12 342.119 353.368 342.119 355.864V364H340.319Z" fill="#4C4948"/>
<path d="M429 142C429 133.163 436.163 126 445 126H477C485.837 126 493 133.163 493 142V333H429V142Z" fill="#D93A3A"/>
<path d="M449.44 364.288C448.576 364.288 447.8 364.144 447.112 363.856C446.44 363.568 445.824 363.096 445.264 362.44L446.296 360.928C446.648 361.344 447.064 361.712 447.544 362.032C448.024 362.352 448.616 362.512 449.32 362.512C450.312 362.512 451.096 362.208 451.672 361.6C452.248 360.976 452.536 360.16 452.536 359.152V347.992H454.528V359.176C454.528 360.04 454.392 360.8 454.12 361.456C453.864 362.096 453.504 362.624 453.04 363.04C452.592 363.456 452.056 363.768 451.432 363.976C450.824 364.184 450.16 364.288 449.44 364.288ZM466.015 364V362.368C465.567 362.88 464.983 363.328 464.263 363.712C463.543 364.096 462.751 364.288 461.887 364.288C460.671 364.288 459.751 363.992 459.127 363.4C458.503 362.792 458.191 361.856 458.191 360.592V352.408H459.991V360.04C459.991 360.552 460.047 360.976 460.159 361.312C460.287 361.648 460.463 361.92 460.687 362.128C460.927 362.336 461.207 362.48 461.527 362.56C461.847 362.64 462.199 362.68 462.583 362.68C463.287 362.68 463.951 362.504 464.575 362.152C465.199 361.8 465.679 361.392 466.015 360.928V352.408H467.815V364H466.015ZM471.409 364V347.992H473.209V364H471.409Z" fill="#4C4948"/>
<path d="M565 111C565 102.163 572.163 95 581 95H613C621.837 95 629 102.163 629 111V333H565V111Z" fill="#D93A3A"/>
<path d="M589.538 364L588.122 360.448H580.154L578.738 364H576.458L582.89 347.992H585.362L591.818 364H589.538ZM584.138 350.056L580.73 358.672H587.522L584.138 350.056ZM601.382 364V362.368C600.934 362.88 600.35 363.328 599.63 363.712C598.91 364.096 598.118 364.288 597.254 364.288C596.038 364.288 595.118 363.992 594.494 363.4C593.87 362.792 593.558 361.856 593.558 360.592V352.408H595.358V360.04C595.358 360.552 595.414 360.976 595.526 361.312C595.654 361.648 595.83 361.92 596.054 362.128C596.294 362.336 596.574 362.48 596.894 362.56C597.214 362.64 597.566 362.68 597.95 362.68C598.654 362.68 599.318 362.504 599.942 362.152C600.566 361.8 601.046 361.392 601.382 360.928V352.408H603.182V364H601.382ZM611.433 368.704C610.441 368.704 609.585 368.584 608.865 368.344C608.145 368.104 607.441 367.648 606.753 366.976L607.665 365.632C608.145 366.208 608.681 366.616 609.273 366.856C609.881 367.096 610.601 367.216 611.433 367.216C611.913 367.216 612.377 367.152 612.825 367.024C613.273 366.912 613.665 366.712 614.001 366.424C614.353 366.152 614.633 365.792 614.841 365.344C615.049 364.912 615.153 364.376 615.153 363.736V362.08C614.737 362.672 614.185 363.168 613.497 363.568C612.825 363.952 612.081 364.144 611.265 364.144C610.513 364.144 609.817 364.008 609.177 363.736C608.553 363.464 608.009 363.072 607.545 362.56C607.097 362.032 606.745 361.4 606.489 360.664C606.233 359.928 606.105 359.088 606.105 358.144C606.105 357.216 606.225 356.384 606.465 355.648C606.721 354.896 607.073 354.264 607.521 353.752C607.985 353.224 608.529 352.824 609.153 352.552C609.793 352.264 610.497 352.12 611.265 352.12C612.049 352.12 612.777 352.304 613.449 352.672C614.121 353.024 614.689 353.52 615.153 354.16V352.408H616.953V363.664C616.953 364.624 616.793 365.424 616.473 366.064C616.169 366.72 615.761 367.24 615.249 367.624C614.737 368.008 614.145 368.28 613.473 368.44C612.817 368.616 612.137 368.704 611.433 368.704ZM611.697 362.56C612.049 362.56 612.401 362.512 612.753 362.416C613.105 362.304 613.433 362.16 613.737 361.984C614.041 361.808 614.313 361.608 614.553 361.384C614.793 361.16 614.993 360.92 615.153 360.664V355.6C614.993 355.344 614.793 355.104 614.553 354.88C614.313 354.656 614.041 354.464 613.737 354.304C613.433 354.128 613.105 353.992 612.753 353.896C612.401 353.784 612.049 353.728 611.697 353.728C611.121 353.728 610.601 353.84 610.137 354.064C609.673 354.272 609.281 354.576 608.961 354.976C608.641 355.36 608.393 355.824 608.217 356.368C608.057 356.912 607.977 357.504 607.977 358.144C607.977 358.784 608.057 359.376 608.217 359.92C608.393 360.448 608.641 360.912 608.961 361.312C609.281 361.696 609.673 362 610.137 362.224C610.601 362.448 611.121 362.56 611.697 362.56Z" fill="#4C4948"/>
<path d="M701 209C701 200.163 708.163 193 717 193H749C757.837 193 765 200.163 765 209V333H701V209Z" fill="#D9893A"/>
<path d="M719.396 364.288C717.988 364.288 716.78 364.056 715.772 363.592C714.764 363.112 713.924 362.496 713.252 361.744L714.428 360.232C714.684 360.52 714.988 360.808 715.34 361.096C715.692 361.368 716.076 361.608 716.492 361.816C716.924 362.024 717.388 362.192 717.884 362.32C718.38 362.448 718.908 362.512 719.468 362.512C720.188 362.512 720.788 362.424 721.268 362.248C721.748 362.072 722.132 361.856 722.42 361.6C722.708 361.328 722.916 361.032 723.044 360.712C723.172 360.376 723.236 360.056 723.236 359.752C723.236 359.24 723.1 358.816 722.828 358.48C722.556 358.144 722.196 357.864 721.748 357.64C721.316 357.4 720.812 357.208 720.236 357.064C719.676 356.904 719.092 356.744 718.484 356.584C717.892 356.408 717.308 356.216 716.732 356.008C716.172 355.8 715.668 355.536 715.22 355.216C714.788 354.88 714.436 354.472 714.164 353.992C713.892 353.512 713.756 352.912 713.756 352.192C713.756 351.536 713.892 350.936 714.164 350.392C714.452 349.848 714.836 349.384 715.316 349C715.812 348.6 716.396 348.296 717.068 348.088C717.74 347.864 718.468 347.752 719.252 347.752C720.484 347.752 721.572 347.944 722.516 348.328C723.46 348.712 724.268 349.264 724.94 349.984L723.74 351.448C723.132 350.776 722.428 350.288 721.628 349.984C720.828 349.68 719.988 349.528 719.108 349.528C718.148 349.528 717.356 349.76 716.732 350.224C716.124 350.688 715.82 351.304 715.82 352.072C715.82 352.52 715.956 352.888 716.228 353.176C716.5 353.464 716.852 353.712 717.284 353.92C717.732 354.128 718.236 354.312 718.796 354.472C719.372 354.616 719.956 354.776 720.548 354.952C721.156 355.112 721.74 355.304 722.3 355.528C722.876 355.752 723.38 356.04 723.812 356.392C724.26 356.744 724.62 357.176 724.892 357.688C725.164 358.2 725.3 358.832 725.3 359.584C725.3 360.16 725.196 360.736 724.988 361.312C724.78 361.872 724.436 362.376 723.956 362.824C723.492 363.256 722.884 363.608 722.132 363.88C721.38 364.152 720.468 364.288 719.396 364.288ZM733.434 364.288C732.57 364.288 731.778 364.144 731.058 363.856C730.338 363.552 729.714 363.136 729.186 362.608C728.674 362.064 728.266 361.424 727.962 360.688C727.674 359.936 727.53 359.104 727.53 358.192C727.53 357.36 727.674 356.576 727.962 355.84C728.25 355.088 728.642 354.44 729.138 353.896C729.65 353.352 730.25 352.92 730.938 352.6C731.642 352.28 732.41 352.12 733.242 352.12C734.122 352.12 734.906 352.28 735.594 352.6C736.282 352.92 736.866 353.36 737.346 353.92C737.826 354.48 738.186 355.144 738.426 355.912C738.682 356.664 738.81 357.472 738.81 358.336V358.792H729.426C729.458 359.336 729.578 359.856 729.786 360.352C729.994 360.832 730.274 361.256 730.626 361.624C730.994 361.976 731.426 362.264 731.922 362.488C732.418 362.696 732.978 362.8 733.602 362.8C734.274 362.8 734.922 362.672 735.546 362.416C736.17 362.16 736.714 361.8 737.178 361.336L738.042 362.512C737.466 363.088 736.794 363.528 736.026 363.832C735.258 364.136 734.394 364.288 733.434 364.288ZM737.034 357.472C737.034 357.04 736.954 356.6 736.794 356.152C736.65 355.688 736.418 355.272 736.098 354.904C735.794 354.52 735.402 354.208 734.922 353.968C734.442 353.728 733.874 353.608 733.218 353.608C732.594 353.608 732.05 353.728 731.586 353.968C731.122 354.208 730.73 354.512 730.41 354.88C730.106 355.248 729.866 355.664 729.69 356.128C729.53 356.576 729.442 357.024 729.426 357.472H737.034ZM747.438 364.288C746.638 364.288 745.902 364.112 745.23 363.76C744.558 363.408 743.99 362.904 743.526 362.248V368.416H741.726V352.408H743.526V354.136C743.942 353.544 744.494 353.064 745.182 352.696C745.87 352.312 746.622 352.12 747.438 352.12C748.206 352.12 748.902 352.264 749.526 352.552C750.166 352.824 750.71 353.224 751.158 353.752C751.622 354.264 751.974 354.896 752.214 355.648C752.47 356.4 752.598 357.248 752.598 358.192C752.598 359.136 752.47 359.984 752.214 360.736C751.974 361.488 751.622 362.128 751.158 362.656C750.71 363.184 750.166 363.592 749.526 363.88C748.902 364.152 748.206 364.288 747.438 364.288ZM746.982 362.68C747.558 362.68 748.078 362.568 748.542 362.344C749.006 362.12 749.398 361.808 749.718 361.408C750.038 361.008 750.278 360.536 750.438 359.992C750.614 359.432 750.702 358.832 750.702 358.192C750.702 357.552 750.614 356.96 750.438 356.416C750.278 355.872 750.038 355.4 749.718 355C749.398 354.6 749.006 354.288 748.542 354.064C748.078 353.84 747.558 353.728 746.982 353.728C746.262 353.728 745.582 353.912 744.942 354.28C744.318 354.632 743.846 355.064 743.526 355.576V360.808C743.846 361.32 744.318 361.76 744.942 362.128C745.582 362.496 746.262 362.68 746.982 362.68Z" fill="#4C4948"/>
<path d="M837 257C837 248.163 844.163 241 853 241H885C893.837 241 901 248.163 901 257V333H837V257Z" fill="#00715B"/>
<path d="M859.523 364.288C858.339 364.288 857.259 364.08 856.283 363.664C855.307 363.248 854.467 362.672 853.763 361.936C853.075 361.184 852.539 360.304 852.155 359.296C851.771 358.288 851.579 357.192 851.579 356.008C851.579 354.824 851.771 353.728 852.155 352.72C852.539 351.712 853.075 350.84 853.763 350.104C854.467 349.352 855.307 348.768 856.283 348.352C857.259 347.936 858.339 347.728 859.523 347.728C860.707 347.728 861.787 347.936 862.763 348.352C863.739 348.768 864.571 349.352 865.259 350.104C865.963 350.84 866.507 351.712 866.891 352.72C867.275 353.728 867.467 354.824 867.467 356.008C867.467 357.192 867.275 358.288 866.891 359.296C866.507 360.304 865.963 361.184 865.259 361.936C864.571 362.672 863.739 363.248 862.763 363.664C861.787 364.08 860.707 364.288 859.523 364.288ZM859.523 362.512C860.419 362.512 861.227 362.352 861.947 362.032C862.667 361.696 863.283 361.24 863.795 360.664C864.307 360.072 864.699 359.384 864.971 358.6C865.259 357.8 865.403 356.936 865.403 356.008C865.403 355.08 865.259 354.216 864.971 353.416C864.699 352.616 864.307 351.928 863.795 351.352C863.283 350.776 862.667 350.328 861.947 350.008C861.227 349.672 860.419 349.504 859.523 349.504C858.627 349.504 857.811 349.672 857.075 350.008C856.355 350.328 855.739 350.776 855.227 351.352C854.715 351.928 854.323 352.616 854.051 353.416C853.779 354.216 853.643 355.08 853.643 356.008C853.643 356.936 853.779 357.8 854.051 358.6C854.323 359.384 854.715 360.072 855.227 360.664C855.739 361.24 856.355 361.696 857.075 362.032C857.811 362.352 858.627 362.512 859.523 362.512ZM875.619 364.288C874.755 364.288 873.963 364.136 873.243 363.832C872.539 363.512 871.931 363.08 871.419 362.536C870.923 361.992 870.531 361.352 870.243 360.616C869.971 359.864 869.835 359.056 869.835 358.192C869.835 357.328 869.971 356.528 870.243 355.792C870.531 355.056 870.923 354.416 871.419 353.872C871.931 353.328 872.539 352.904 873.243 352.6C873.963 352.28 874.755 352.12 875.619 352.12C876.675 352.12 877.531 352.312 878.187 352.696C878.859 353.08 879.419 353.56 879.867 354.136L878.667 355.24C878.283 354.712 877.843 354.328 877.347 354.088C876.867 353.848 876.323 353.728 875.715 353.728C875.091 353.728 874.531 353.84 874.035 354.064C873.555 354.288 873.139 354.6 872.787 355C872.435 355.4 872.163 355.872 871.971 356.416C871.795 356.96 871.707 357.552 871.707 358.192C871.707 358.832 871.795 359.432 871.971 359.992C872.163 360.536 872.435 361.008 872.787 361.408C873.139 361.808 873.555 362.12 874.035 362.344C874.531 362.568 875.091 362.68 875.715 362.68C876.931 362.68 877.915 362.176 878.667 361.168L879.867 362.272C879.419 362.848 878.859 363.328 878.187 363.712C877.531 364.096 876.675 364.288 875.619 364.288ZM885.318 364.288C884.454 364.288 883.806 364.056 883.374 363.592C882.958 363.112 882.75 362.44 882.75 361.576V353.992H880.83V352.408H882.75V349.24H884.55V352.408H886.902V353.992H884.55V361.192C884.55 361.624 884.646 361.984 884.838 362.272C885.03 362.544 885.326 362.68 885.726 362.68C885.982 362.68 886.214 362.632 886.422 362.536C886.646 362.44 886.822 362.328 886.95 362.2L887.478 363.544C887.254 363.768 886.966 363.944 886.614 364.072C886.278 364.216 885.846 364.288 885.318 364.288Z" fill="#4C4948"/>
<rect x="16.5" y="16.5" width="980" height="404" rx="15.5" stroke="#C5C5C5" stroke-opacity="0.01" shape-rendering="crispEdges"/>
</g>
<defs>
<filter id="filter0_d_34_2165" x="0" y="0" width="1013" height="437" filterUnits="userSpaceOnUse" color-interpolation-filters="sRGB">
<feFlood flood-opacity="0" result="BackgroundImageFix"/>
<feColorMatrix in="SourceAlpha" type="matrix" values="0 0 0 0 0 0 0 0 0 0 0 0 0 0 0 0 0 0 127 0" result="hardAlpha"/>
<feOffset/>
<feGaussianBlur stdDeviation="8"/>
<feComposite in2="hardAlpha" operator="out"/>
<feColorMatrix type="matrix" values="0 0 0 0 0 0 0 0 0 0 0 0 0 0 0 0 0 0 1 0"/>
<feBlend mode="normal" in2="BackgroundImageFix" result="effect1_dropShadow_34_2165"/>
<feBlend mode="normal" in="SourceGraphic" in2="effect1_dropShadow_34_2165" result="shape"/>
</filter>
</defs>
</svg>
